<svg width="48" height="47" viewBox="0 0 48 47" fill="none" xmlns="http://www.w3.org/2000/svg">
<g clip-path="url(#clip0_11_706)">
<path d="M15.2013 23.679C15.2013 24.6748 14.4096 25.4327 13.4064 25.4327C12.6559 25.4327 12.1007 25.0082 12.1007 24.2092C12.1007 23.2134 12.8762 22.4144 13.872 22.4144C14.6314 22.4144 15.2013 22.88 15.2013 23.679ZM6.56795 19.7222H6.1846C6.0627 19.7222 5.93932 19.8044 5.92317 19.9425L5.57214 22.1221L6.24189 22.0971C7.13929 22.0971 7.83254 21.9752 7.99557 20.9383C8.18357 19.8441 7.49032 19.7222 6.56795 19.7222ZM29.7419 19.7222H29.3747C29.2278 19.7222 29.1294 19.8044 29.1133 19.9425L28.771 22.1221L29.4232 22.0971C30.4836 22.0971 31.218 21.8518 31.218 20.6284C31.2092 19.7633 30.4366 19.7222 29.7419 19.7222ZM46.9997 9.13835V37.8612C46.9993 38.9 46.5865 39.8961 45.852 40.6306C45.1174 41.3652 44.1213 41.778 43.0825 41.7784H3.91539C2.87661 41.778 1.88049 41.3652 1.14597 40.6306C0.411443 39.8961 -0.00138075 38.9 -0.00177002 37.8612V9.13835C-0.00138075 8.09957 0.411443 7.10345 1.14597 6.36893C1.88049 5.63441 2.87661 5.22158 3.91539 5.22119H43.0825C44.1213 5.22158 45.1174 5.63441 45.852 6.36893C46.5865 7.10345 46.9993 8.09957 46.9997 9.13835ZM10.4689 20.1863C10.4689 18.4723 9.14707 17.9009 7.6372 17.9009H4.37364C4.26821 17.9017 4.16675 17.9412 4.0885 18.0119C4.01026 18.0825 3.96068 18.1795 3.94917 18.2843L2.61114 26.615C2.58617 26.778 2.70954 26.9411 2.87257 26.9411H4.42357C4.64389 26.9411 4.84804 26.7046 4.87301 26.4755L5.2402 24.3047C5.32245 23.7172 6.31679 23.9213 6.70895 23.9213C9.04279 23.9213 10.4704 22.5348 10.4704 20.1848L10.4689 20.1863ZM17.3398 20.9045H15.7888C15.4789 20.9045 15.4627 21.3539 15.4465 21.5743C14.9736 20.881 14.2877 20.7576 13.5122 20.7576C11.5132 20.7576 9.9872 22.5113 9.9872 24.4457C9.9872 26.0363 10.983 27.0733 12.5737 27.0733C13.308 27.0733 14.2216 26.6738 14.7357 26.1024C14.6882 26.2674 14.6606 26.4376 14.6534 26.6091C14.6534 26.7971 14.7357 26.9352 14.9149 26.9352H16.319C16.5393 26.9352 16.7273 26.6987 16.7684 26.4696L17.6012 21.2232C17.6262 21.0675 17.5028 20.9045 17.3398 20.9045ZM20.6444 28.893L25.8424 21.3363C25.8835 21.2952 25.8835 21.2541 25.8835 21.1983C25.8835 21.0602 25.7616 20.9133 25.622 20.9133H24.0549C23.982 20.9162 23.9107 20.9362 23.847 20.9716C23.7832 21.0071 23.7286 21.057 23.6877 21.1175L21.5257 24.3003L20.6283 21.2408C20.5946 21.1478 20.5337 21.067 20.4536 21.0089C20.3735 20.9507 20.2778 20.918 20.1789 20.9148H18.6528C18.5133 20.9148 18.3914 21.0617 18.3914 21.1997C18.3914 21.2981 19.982 25.8351 20.1216 26.2669C19.9013 26.5768 18.4487 28.6008 18.4487 28.846C18.4487 28.9929 18.5706 29.1075 18.7101 29.1075H20.2773C20.3506 29.1026 20.4218 29.0811 20.4854 29.0444C20.5491 29.0077 20.6035 28.957 20.6444 28.896V28.893ZM33.6429 20.1863C33.6429 18.4723 32.321 17.9009 30.8111 17.9009H27.5711C27.4626 17.9 27.3574 17.9383 27.2748 18.0087C27.1923 18.0792 27.1379 18.177 27.1216 18.2843L25.7998 26.6077C25.7836 26.7707 25.9055 26.9337 26.0612 26.9337H27.7341C27.8971 26.9337 28.019 26.8118 28.0602 26.6723L28.4274 24.3061C28.5096 23.7186 29.5054 23.9228 29.8961 23.9228C32.2138 23.9228 33.6429 22.5363 33.6429 20.1863ZM40.5122 20.9045H38.9612C38.6513 20.9045 38.6352 21.3539 38.6102 21.5743C38.1608 20.881 37.4675 20.7576 36.6759 20.7576C34.6769 20.7576 33.1509 22.5113 33.1509 24.4457C33.1509 26.0363 34.1467 27.0733 35.7373 27.0733C36.4967 27.0733 37.4102 26.6738 37.8993 26.1024C37.8744 26.2243 37.8171 26.4858 37.8171 26.6091C37.8171 26.7971 37.8993 26.9352 38.0785 26.9352H39.49C39.7103 26.9352 39.8983 26.6987 39.9394 26.4696L40.7722 21.2232C40.7972 21.0675 40.6753 20.9045 40.5122 20.9045ZM44.3883 18.1873C44.3883 18.0243 44.2664 17.9024 44.1268 17.9024H42.6169C42.495 17.9024 42.3717 18.0008 42.3555 18.1227L41.0336 26.6091L41.0101 26.6503C41.0101 26.7971 41.132 26.9352 41.2951 26.9352H42.6419C42.8461 26.9352 43.0502 26.6987 43.0664 26.4696L44.3883 18.2123V18.1873ZM37.0445 22.4144C36.0487 22.4144 35.2732 23.206 35.2732 24.2092C35.2732 25.0008 35.8445 25.4327 36.5951 25.4327C37.5747 25.4327 38.3664 24.6821 38.3664 23.679C38.3752 22.88 37.8039 22.4144 37.0445 22.4144Z" fill="white"/>
</g>
<defs>
<clipPath id="clip0_11_706">
<rect width="47.0322" height="47" fill="white" transform="translate(0.117371)"/>
</clipPath>
</defs>
</svg>
