<svg width="55" height="36" viewBox="0 0 55 36" fill="none" xmlns="http://www.w3.org/2000/svg">
<g clip-path="url(#clip0_11_711)">
<path d="M50.4001 36H3.60012C2.64534 36 1.72967 35.6207 1.05454 34.9456C0.379407 34.2705 0.00012207 33.3548 0.00012207 32.4L0.00012207 3.6C0.00012207 2.64522 0.379407 1.72955 1.05454 1.05442C1.72967 0.379285 2.64534 0 3.60012 0L50.4001 0C51.3549 0 52.2706 0.379285 52.9457 1.05442C53.6208 1.72955 54.0001 2.64522 54.0001 3.6V32.4C54.0001 33.3548 53.6208 34.2705 52.9457 34.9456C52.2706 35.6207 51.3549 36 50.4001 36ZM42.7261 29.5785H42.7051C42.4999 29.5783 42.2969 29.6207 42.1089 29.7031C41.9209 29.7855 41.7521 29.906 41.6131 30.057L41.6116 30.0585C41.3161 30.3822 41.1523 30.8047 41.1526 31.243C41.1529 31.6814 41.3172 32.1037 41.6131 32.427L41.6116 32.4255C41.8846 32.721 42.2731 32.9055 42.7051 32.9055H42.7261C42.9194 32.9188 43.1115 32.8831 43.2874 32.8019C43.4633 32.7206 43.6159 32.5963 43.7311 32.4405L43.7326 32.4375V32.8365H44.4121V28.383H43.7326V30.048C43.6219 29.9018 43.4789 29.7831 43.3147 29.7014C43.1504 29.6197 42.9695 29.5771 42.7861 29.577L42.7231 29.5785H42.7261ZM36.3511 29.5785H36.3166C35.8831 29.5785 35.4916 29.7585 35.2141 30.048C34.9181 30.3762 34.7544 30.8026 34.7547 31.2445C34.755 31.6865 34.9192 32.1127 35.2156 32.4405L35.2141 32.439C35.4931 32.7285 35.8846 32.9085 36.3181 32.9085H36.3541L36.4201 32.91C36.5986 32.9102 36.7746 32.8678 36.9334 32.7864C37.0923 32.705 37.2295 32.587 37.3336 32.442L37.3366 32.439V32.838H38.0416V29.673H37.3381V30.048C37.2245 29.895 37.0751 29.7722 36.9031 29.6904C36.731 29.6085 36.5415 29.5701 36.3511 29.5785ZM33.2791 29.5785L33.2161 29.577C32.7745 29.577 32.351 29.7524 32.0388 30.0647C31.7265 30.3769 31.5511 30.8004 31.5511 31.242C31.5511 31.6836 31.7265 32.1071 32.0388 32.4193C32.351 32.7316 32.7745 32.907 33.2161 32.907L33.2821 32.9055H33.2791L33.3406 32.907C33.7456 32.907 34.1161 32.766 34.4086 32.529L34.4056 32.532L34.0771 31.9695C33.8602 32.1411 33.5945 32.2398 33.3181 32.2515H33.3151C33.1773 32.2603 33.0391 32.2397 32.9098 32.1911C32.7805 32.1425 32.663 32.067 32.5651 31.9695C32.3908 31.7674 32.2951 31.5093 32.2954 31.2425C32.2956 30.9756 32.3919 30.7177 32.5666 30.516L32.5651 30.5175C32.6506 30.4283 32.7533 30.3573 32.867 30.3088C32.9807 30.2603 33.103 30.2354 33.2266 30.2355H33.2581H33.2566C33.5549 30.2362 33.8446 30.3359 34.0801 30.519L34.0771 30.516L34.4056 29.9535C34.0956 29.7085 33.7118 29.5758 33.3166 29.577L33.2791 29.5785ZM27.1591 29.5785H27.1216C26.9179 29.5781 26.7162 29.6196 26.5291 29.7004C26.3421 29.7811 26.1736 29.8995 26.0341 30.048C25.8845 30.2094 25.7681 30.3988 25.6917 30.6052C25.6152 30.8116 25.5802 31.031 25.5886 31.251V31.248L25.5871 31.317C25.5871 31.7595 25.7626 32.1615 26.0461 32.4555C26.3311 32.739 26.7241 32.913 27.1576 32.913L27.2086 32.9115H27.2056L27.2671 32.913C27.7366 32.913 28.1656 32.7435 28.4986 32.463L28.4956 32.466L28.1671 31.9515C27.9154 32.1746 27.5915 32.2993 27.2551 32.3025C27.0269 32.3223 26.7983 32.2533 26.6195 32.11C26.4407 31.9667 26.324 31.7601 26.2936 31.533V31.5285H28.6606V31.248C28.6816 30.8051 28.5294 30.3715 28.2361 30.039L28.2376 30.0405C28.1058 29.8944 27.9447 29.7776 27.7649 29.6978C27.585 29.6179 27.3904 29.5768 27.1936 29.577H27.1606L27.1591 29.5785ZM22.5436 29.673V30.306H23.1991V31.737C23.1991 32.514 23.5696 32.9085 24.3001 32.9085H24.3256C24.6286 32.9085 24.9091 32.8185 25.1446 32.6655L25.1386 32.6685L24.9496 32.082C24.7636 32.187 24.5542 32.2437 24.3406 32.247C24.0436 32.247 23.8921 32.0745 23.8921 31.7325V30.3075H25.0171V29.6745H23.8921V28.7145H23.1886V29.6745L22.5436 29.673ZM19.5931 31.968L19.2886 32.508C19.6591 32.7585 20.1151 32.907 20.6056 32.907H20.6506H20.6476L20.7466 32.91C21.1051 32.91 21.4396 32.8035 21.7201 32.6205L21.7126 32.625C21.8317 32.5439 21.9292 32.435 21.9967 32.3077C22.0641 32.1804 22.0994 32.0386 22.0996 31.8945V31.8735C22.0996 31.3455 21.7291 31.035 20.9986 30.9375L20.6716 30.8895C20.3116 30.828 20.1316 30.7185 20.1316 30.5625C20.1316 30.3285 20.3281 30.2115 20.7181 30.2115H20.7256C21.0931 30.2115 21.4381 30.3075 21.7366 30.4755L21.7261 30.4695L22.0081 29.907C21.6175 29.6746 21.1678 29.5605 20.7136 29.5785H20.7181L20.6371 29.577C20.3197 29.5765 20.0103 29.6768 19.7536 29.8635L19.7581 29.8605C19.6486 29.9458 19.56 30.055 19.4992 30.1798C19.4384 30.3046 19.4069 30.4417 19.4071 30.5805V30.612V30.6105C19.4071 31.1235 19.7776 31.431 20.5081 31.524L20.8126 31.572C21.1861 31.635 21.3751 31.7445 21.3751 31.9005C21.3751 32.1645 21.1351 32.2995 20.6476 32.2995H20.6341C20.2589 32.3003 19.8929 32.1839 19.5871 31.9665L19.5931 31.971V31.968ZM16.9201 29.577H16.8826C16.6791 29.5767 16.4777 29.6182 16.2908 29.6989C16.104 29.7797 15.9358 29.898 15.7966 30.0465C15.5078 30.3785 15.3489 30.8038 15.3492 31.2438C15.3494 31.6838 15.5089 32.1089 15.7981 32.4405L15.7966 32.439C15.9361 32.5875 16.1046 32.7059 16.2916 32.7866C16.4787 32.8674 16.6804 32.9089 16.8841 32.9085H16.9231C17.1164 32.9188 17.3078 32.8816 17.4835 32.8003C17.6592 32.719 17.8123 32.596 17.9296 32.442L17.9311 32.439V32.838H18.6106V29.673H17.9311V30.048C17.812 29.9011 17.6615 29.7828 17.4908 29.7015C17.32 29.6203 17.1332 29.5783 16.9441 29.5785L16.9201 29.577ZM38.9521 29.6715V32.8365H39.6316V31.056C39.6316 30.513 39.8596 30.237 40.3111 30.237H40.3261C40.4746 30.237 40.6156 30.2715 40.7401 30.333L40.7341 30.33L40.9441 29.673C40.8035 29.6101 40.6511 29.5779 40.4971 29.5785L40.4491 29.58H40.4521H40.4266C40.2651 29.5799 40.1066 29.623 39.9673 29.7047C39.8281 29.7865 39.7132 29.9039 39.6346 30.045L39.6316 30.0495V29.6745L38.9521 29.6715ZM29.3671 29.6715V32.8365H30.0706V31.056C30.0706 30.513 30.2986 30.237 30.7501 30.237H30.7651C30.9136 30.237 31.0546 30.2715 31.1791 30.333L31.1731 30.33L31.3846 29.673C31.2377 29.6101 31.0795 29.5779 30.9196 29.5785H30.8911H30.8656C30.7043 29.5784 30.546 29.6214 30.4069 29.7032C30.2679 29.7849 30.1534 29.9025 30.0751 30.0435L30.0721 30.048V29.673L29.3671 29.6715ZM13.3351 30.234C13.8016 30.234 14.0386 30.5175 14.0386 31.074V32.832H14.7421V30.84L14.7436 30.7905C14.7439 30.4739 14.6213 30.1695 14.4016 29.9415C14.154 29.7097 13.8273 29.5809 13.4881 29.5815H13.4746C13.2584 29.5676 13.0424 29.612 12.8492 29.7102C12.6561 29.8084 12.4928 29.9566 12.3766 30.1395L12.3736 30.144C12.2676 29.9608 12.1122 29.8109 11.9253 29.7115C11.7384 29.6121 11.5273 29.567 11.3161 29.5815H11.3191H11.3056C11.1294 29.5816 10.9559 29.624 10.7995 29.7052C10.6431 29.7864 10.5086 29.9039 10.4071 30.048L10.4041 30.051V29.676H9.70362V32.841H10.4071V31.08C10.4071 30.5205 10.6681 30.24 11.1811 30.24C11.6476 30.24 11.8846 30.5235 11.8846 31.08V32.838H12.5641V31.08C12.5641 30.519 12.8251 30.24 13.3366 30.24L13.3351 30.234ZM34.3591 3H34.3096C31.964 2.99623 29.6717 3.69985 27.7321 5.019L27.7726 4.9935C29.731 6.58103 31.1713 8.71654 31.9096 11.127L31.9336 11.217C32.2876 12.3345 32.4901 13.6185 32.4901 14.952C32.4901 16.2705 32.2906 17.541 31.9216 18.738L31.9456 18.648C31.2255 21.0822 29.7777 23.2378 27.7966 24.825L27.7726 24.8445C29.7176 26.1492 32.0081 26.8429 34.3501 26.8365C36.0301 26.8365 37.6276 26.487 39.0751 25.857L38.9986 25.887C41.8358 24.6985 44.099 22.4525 45.3091 19.6245L45.3376 19.548C45.9376 18.183 46.2871 16.5915 46.2871 14.919C46.2871 13.2465 45.9376 11.655 45.3076 10.215L45.3376 10.29C44.1478 7.4503 41.8965 5.18719 39.0631 3.9825L38.9866 3.954C37.5311 3.32261 35.9607 2.99933 34.3741 3.0045H34.3576L34.3591 3ZM19.6411 3H19.6246C18.0113 2.99805 16.4151 3.33108 14.9371 3.978L15.0121 3.948C12.1681 5.13088 9.89874 7.37815 8.68812 10.2105L8.65962 10.287C8.05962 11.652 7.71012 13.2435 7.71012 14.916C7.71012 16.5885 8.05962 18.18 8.68962 19.62L8.65962 19.545C9.84809 22.3822 12.0941 24.6454 14.9221 25.8555L14.9986 25.884C16.3696 26.484 17.9686 26.8335 19.6471 26.8335C22.0059 26.8375 24.3116 26.1343 26.2666 24.8145L26.2246 24.8415C24.2557 23.2613 22.8097 21.1235 22.0756 18.708L22.0531 18.6195C21.6901 17.4238 21.5076 16.1806 21.5116 14.931C21.5098 13.0326 21.9297 11.1574 22.7412 9.44115C23.5526 7.72487 24.7353 6.21033 26.2036 5.007L26.2261 4.989C24.2967 3.6846 22.0196 2.99054 19.6906 2.997H19.6366H19.6396L19.6411 3ZM27.0001 5.5545C25.1048 7.01937 23.7051 9.0311 22.9906 11.3175L22.9681 11.4C22.6066 12.5446 22.4244 13.7382 22.4281 14.9385C22.4281 16.1895 22.6216 17.394 22.9801 18.5265L22.9576 18.4425C23.6573 20.753 25.0611 22.7872 26.9731 24.261L27.0001 24.2805C28.9043 22.8248 30.3095 20.8137 31.0216 18.525L31.0441 18.444C31.399 17.3095 31.5776 16.1272 31.5736 14.9385C31.5736 13.674 31.3756 12.4575 31.0111 11.3145L31.0336 11.3985C30.3302 9.09053 28.9315 7.05593 27.0286 5.5725L27.0016 5.553L27.0001 5.5545ZM42.8191 32.25H42.7936C42.6686 32.2501 42.545 32.2241 42.4306 32.1737C42.3162 32.1234 42.2135 32.0497 42.1291 31.9575C41.9543 31.7598 41.8579 31.5049 41.8582 31.241C41.8585 30.977 41.9554 30.7224 42.1306 30.525L42.1291 30.5265C42.2186 30.4333 42.3259 30.3592 42.4448 30.3085C42.5636 30.2579 42.6914 30.2317 42.8206 30.2317C42.9498 30.2317 43.0776 30.2579 43.1965 30.3085C43.3153 30.3592 43.4227 30.4333 43.5121 30.5265C43.6864 30.7262 43.7823 30.9824 43.782 31.2475C43.7817 31.5126 43.6853 31.7686 43.5106 31.968L43.5121 31.9665C43.4261 32.0564 43.3227 32.1278 43.2082 32.1765C43.0937 32.2253 42.9705 32.2503 42.8461 32.25H42.8191ZM36.4216 32.25H36.3886C36.2674 32.25 36.1475 32.2251 36.0362 32.1769C35.925 32.1286 35.8249 32.058 35.7421 31.9695C35.5739 31.7643 35.4821 31.5071 35.4823 31.2417C35.4826 30.9764 35.575 30.7194 35.7436 30.5145L35.7421 30.516C35.8246 30.427 35.9246 30.356 36.0359 30.3074C36.1472 30.2589 36.2672 30.2339 36.3886 30.234H36.4231H36.4486C36.7111 30.234 36.9481 30.3465 37.1116 30.5265C37.2796 30.708 37.3816 30.951 37.3816 31.218V31.248V31.2465L37.3831 31.287C37.3836 31.5405 37.2913 31.7854 37.1236 31.9755L37.1251 31.974C37.0403 32.0616 36.9386 32.1312 36.8262 32.1786C36.7139 32.226 36.5931 32.2503 36.4711 32.25L36.4201 32.2485H36.4231L36.4216 32.25ZM17.0146 32.25L16.9711 32.2515C16.8479 32.2518 16.726 32.227 16.6128 32.1785C16.4995 32.13 16.3974 32.0589 16.3126 31.9695C16.1444 31.7643 16.0526 31.5071 16.0528 31.2417C16.0531 30.9764 16.1455 30.7194 16.3141 30.5145L16.3126 30.516C16.4032 30.4211 16.5133 30.3469 16.6352 30.2985C16.7571 30.2501 16.8881 30.2286 17.0191 30.2355H17.0521C17.1743 30.2353 17.2951 30.2614 17.4063 30.3118C17.5176 30.3623 17.6167 30.436 17.6971 30.528L17.6986 30.5295C17.8653 30.7328 17.9562 30.9876 17.9559 31.2505C17.9557 31.5134 17.8642 31.768 17.6971 31.971L17.6986 31.9695C17.6156 32.0587 17.5151 32.1298 17.4033 32.1783C17.2915 32.2268 17.171 32.2517 17.0491 32.2515H17.0161H17.0176L17.0146 32.25ZM27.9601 30.96H26.3206C26.3415 30.7572 26.4368 30.5693 26.5881 30.4325C26.7393 30.2958 26.9359 30.2199 27.1398 30.2195C27.3437 30.2192 27.5405 30.2943 27.6923 30.4305C27.844 30.5667 27.94 30.7542 27.9616 30.957V30.96H27.9601Z" fill="white"/>
</g>
<defs>
<clipPath id="clip0_11_711">
<rect width="54.037" height="36" fill="white" transform="translate(0.115356)"/>
</clipPath>
</defs>
</svg>
