<svg width="161" height="161" viewBox="0 0 161 161" fill="none" xmlns="http://www.w3.org/2000/svg">
<circle cx="80.5" cy="80.5" r="80.5" fill="#F8F8F8"/>
<g clip-path="url(#clip0_14_964)">
<path d="M104.977 112.958H55.0225C53.7138 112.958 52.6534 111.897 52.6534 110.588V72.3896H107.346V110.588C107.346 111.897 106.285 112.958 104.977 112.958Z" fill="#FFC73B"/>
<path d="M52.6534 72.3896H107.346V80.3384H52.6534V72.3896Z" fill="#EFB025"/>
<path d="M112 64.103V73.9506C112 75.0025 111.146 75.8543 110.095 75.8543H49.9037C48.852 75.8543 48 75.0025 48 73.9506V64.1031C48 63.0512 48.852 62.1992 49.9037 62.1992H110.095C111.146 62.1992 112 63.0512 112 64.103Z" fill="#FFC73B"/>
<path d="M77.8243 66.7267C77.409 67.21 77.0019 67.7003 76.603 68.1973C75.125 70.0369 73.7664 71.9694 72.5356 73.9829C72.1587 74.5998 71.7935 75.2238 71.4404 75.8545H58.4604C59.219 74.1334 60.05 72.4451 60.9511 70.794C62.5892 67.7908 64.4551 64.9174 66.5323 62.1993C67.03 61.5476 67.5397 60.9051 68.061 60.272C68.3735 59.8902 68.6914 59.5137 69.0136 59.1387L72.5669 62.1993C72.7505 62.3565 72.9341 62.5157 73.1173 62.6734C74.5156 63.8775 75.9141 65.081 77.312 66.2867C77.4834 66.4322 77.6533 66.5802 77.8243 66.7267ZM97.1909 75.8545H84.21C83.8574 75.2235 83.4922 74.5995 83.1148 73.9829C81.8835 71.9698 80.5249 70.0373 79.0473 68.1973C78.6475 67.7005 78.2398 67.2102 77.8243 66.7265C77.9955 66.5802 78.1655 66.4332 78.3369 66.2867C79.7364 65.081 81.1348 63.876 82.5328 62.6734C82.7163 62.5157 82.8999 62.3565 83.0835 62.1993C84.2681 61.1788 85.4531 60.1593 86.6368 59.1387C86.9588 59.5123 87.2763 59.8898 87.5893 60.271C88.1111 60.904 88.6208 61.5469 89.1181 62.1993C91.1953 64.9177 93.0615 67.791 94.7003 70.794C95.6013 72.4451 96.4323 74.1334 97.1909 75.8545Z" fill="#EFB025"/>
<path d="M79.999 66.7275C79.5834 67.2106 79.1761 67.7007 78.7774 68.1978C77.2993 70.0377 75.9407 71.9704 74.7099 73.984C70.7989 80.3769 68.2225 87.4952 67.1358 94.9103C65.4956 92.7349 63.982 90.3814 62.6201 87.8648C60.2246 89.4273 57.8833 91.2144 55.6289 93.2252C56.7814 85.3636 59.3198 77.769 63.126 70.7944C65.1574 67.07 67.5379 63.5469 70.2354 60.2725C70.5484 59.891 70.866 59.5132 71.1879 59.1392C72.5561 60.3174 73.9234 61.4957 75.292 62.6739C76.69 63.8779 78.0884 65.0815 79.4869 66.2872C79.6578 66.4327 79.8276 66.5807 79.999 66.7275ZM104.37 93.225C102.116 91.2144 99.7744 89.4273 97.3789 87.8648C96.0171 90.3814 94.5034 92.7348 92.8633 94.9102C91.7767 87.495 89.2002 80.3766 85.289 73.9839C84.0579 71.9705 82.6993 70.0379 81.2216 68.1978C80.822 67.7012 80.4145 67.211 79.9991 66.7275C80.1699 66.5807 80.3399 66.4337 80.5112 66.2872C81.9106 65.0815 83.3091 63.8765 84.7075 62.6739C86.0756 61.4942 87.4444 60.3174 88.811 59.1392C89.1331 59.5128 89.4506 59.8903 89.7636 60.2715C92.4617 63.5461 94.8427 67.0696 96.8745 70.7944C100.68 77.7693 103.218 85.3638 104.37 93.2252L104.37 93.225Z" fill="#FF4440"/>
<path d="M74.9042 66.7275H85.0952V75.8545H74.9042V66.7275Z" fill="#FF4440"/>
<path d="M96.8745 70.7945L85.2891 73.984C84.0579 71.9706 82.6993 70.0379 81.2216 68.1979L80.5112 66.2872L79.999 64.9092L84.7075 62.674L89.7637 60.2715C92.4618 63.5461 94.8427 67.0696 96.8745 70.7945Z" fill="#EA2F2F"/>
<path d="M79.999 64.9091L79.4869 66.2871L78.7774 68.1977C77.2993 70.0376 75.9407 71.9703 74.7099 73.984L63.126 70.7943C65.1574 67.0699 67.5379 63.5468 70.2354 60.2725L75.292 62.6737L79.999 64.9091Z" fill="#EA2F2F"/>
<path d="M98.4893 49.4428L79.9995 58.2235L83.5513 67.7758L103.287 62.3437C105.868 61.6332 107.286 58.8632 106.353 56.3539L104.724 51.974C103.791 49.4648 100.908 48.2943 98.4893 49.4428ZM61.5098 49.4428L79.9995 58.2235L76.4478 67.7758L56.7129 62.3437C54.1319 61.6332 52.7139 58.8632 53.647 56.3539L55.2754 51.974C56.2085 49.4648 59.0913 48.2943 61.5098 49.4428Z" fill="#FF4440"/>
<path d="M84.4145 62.0626C84.2432 62.0629 84.0747 62.0199 83.9245 61.9377C83.7742 61.8555 83.6472 61.7367 83.5551 61.5923C83.483 61.4796 83.4338 61.3538 83.4103 61.2221C83.3868 61.0904 83.3895 60.9553 83.4182 60.8247C83.4469 60.694 83.501 60.5702 83.5776 60.4605C83.6541 60.3507 83.7515 60.2572 83.8642 60.1851C84.0044 60.0958 87.3345 57.9766 91.1577 56.4302C96.6694 54.2007 100.35 54.3203 102.096 56.7857C102.174 56.8949 102.229 57.0183 102.259 57.1488C102.288 57.2794 102.292 57.4145 102.269 57.5464C102.247 57.6784 102.198 57.8046 102.127 57.9179C102.056 58.0312 101.963 58.1293 101.853 58.2066C101.744 58.2839 101.621 58.339 101.49 58.3687C101.36 58.3983 101.225 58.402 101.093 58.3795C100.961 58.357 100.835 58.3087 100.722 58.2374C100.609 58.1661 100.51 58.0732 100.433 57.9639C98.0659 54.6222 88.2236 59.8184 84.9624 61.9024C84.7988 62.0071 84.6087 62.0627 84.4145 62.0626ZM75.4839 62.0626C75.2897 62.0627 75.0995 62.0071 74.936 61.9024C71.6747 59.8184 61.8325 54.6222 59.4654 57.9638C59.3091 58.1844 59.0716 58.3339 58.8051 58.3794C58.5386 58.4249 58.265 58.3627 58.0444 58.2064C57.8238 58.0501 57.6745 57.8126 57.6291 57.5461C57.5836 57.2797 57.6459 57.0061 57.8022 56.7856C59.5484 54.3203 63.2285 54.2006 68.7407 56.4301C72.564 57.9761 75.894 60.0957 76.0341 60.1851C76.2617 60.3307 76.4222 60.5607 76.4802 60.8245C76.5383 61.0884 76.4892 61.3645 76.3437 61.5922C76.2515 61.7365 76.1243 61.8552 75.974 61.9374C75.8237 62.0196 75.6552 62.0627 75.4839 62.0626Z" fill="#EA2F2F"/>
<path d="M82.8989 54.9404H77.1001C75.5131 54.9404 74.2265 56.2271 74.2265 57.8146V66.2388C74.2265 67.8263 75.5131 69.1128 77.1001 69.1128H82.8989C84.4859 69.1128 85.7725 67.8262 85.7725 66.2388V57.8146C85.7725 56.2271 84.4859 54.9404 82.8989 54.9404Z" fill="#EA2F2F"/>
<path d="M74.9042 75.8545H85.0952V112.957H74.9042V75.8545Z" fill="#FF4440"/>
<path d="M74.9042 75.8545H85.0952V80.3384H74.9042V75.8545Z" fill="#EA2F2F"/>
</g>
<defs>
<clipPath id="clip0_14_964">
<rect width="64" height="64" fill="white" transform="translate(48 49)"/>
</clipPath>
</defs>
</svg>
