<svg width="122" height="140" viewBox="0 0 122 140" fill="none" xmlns="http://www.w3.org/2000/svg">
<path fill-rule="evenodd" clip-rule="evenodd" d="M46.0786 79.6935C45.9368 79.6939 45.7963 79.6663 45.6653 79.6123C45.5342 79.5582 45.4151 79.4788 45.3149 79.3785C45.2146 79.2783 45.1352 79.1592 45.0811 79.0281C45.0271 78.8971 44.9995 78.7566 44.9999 78.6148V61.3849C44.9999 60.9974 45.2066 60.6421 45.5392 60.4516L60.46 51.8382C60.7959 51.6444 61.2028 51.6444 61.5387 51.8382L76.4594 60.4516C76.582 60.5222 76.6895 60.6162 76.7757 60.7284C76.8619 60.8405 76.9252 60.9686 76.9619 61.1052C76.9987 61.2418 77.0081 61.3843 76.9898 61.5245C76.9715 61.6648 76.9257 61.8001 76.8551 61.9226C76.7844 62.0452 76.6904 62.1527 76.5782 62.2389C76.4661 62.3251 76.3381 62.3884 76.2015 62.4251C76.0649 62.4619 75.9224 62.4713 75.7821 62.453C75.6418 62.4347 75.5065 62.3889 75.384 62.3183L60.9993 54.015L47.154 62.005V78.6148C47.154 79.2091 46.6696 79.6935 46.0786 79.6935Z" fill="#FFA800" fill-opacity="0.15"/>
<path fill-rule="evenodd" clip-rule="evenodd" d="M16.2338 79.6935C16.0923 79.6935 15.9522 79.6656 15.8215 79.6113C15.6908 79.5571 15.5721 79.4776 15.4722 79.3774C15.3723 79.2772 15.2932 79.1582 15.2393 79.0274C15.1854 78.8965 15.1579 78.7563 15.1584 78.6148V61.3849C15.1584 60.9974 15.3618 60.6421 15.6945 60.4515L30.6152 51.8382C30.9511 51.6444 31.358 51.6444 31.6939 51.8382L46.6147 60.4515C46.7372 60.5222 46.8447 60.6162 46.9309 60.7284C47.0171 60.8405 47.0804 60.9686 47.1172 61.1052C47.1539 61.2418 47.1634 61.3843 47.145 61.5245C47.1267 61.6648 47.0809 61.8001 47.0103 61.9226C46.9397 62.0452 46.8456 62.1527 46.7335 62.2389C46.6213 62.3251 46.4933 62.3884 46.3567 62.4251C46.2201 62.4619 46.0776 62.4713 45.9373 62.453C45.7971 62.4347 45.6618 62.3889 45.5392 62.3183L31.1546 54.015L17.3093 62.005V78.6148C17.3093 79.2091 16.8281 79.6935 16.2338 79.6935ZM46.0786 114.153C45.8893 114.155 45.7031 114.106 45.5392 114.011L30.6185 105.395C30.4546 105.3 30.3185 105.164 30.2238 105C30.1292 104.836 30.0793 104.651 30.0791 104.461V87.2314C30.0791 86.8471 30.2826 86.4886 30.6185 86.2948L45.5392 77.6815C45.8719 77.4877 46.282 77.4877 46.6147 77.6815L61.5387 86.298C61.6705 86.3638 61.7875 86.4558 61.8825 86.5684C61.9774 86.6811 62.0483 86.812 62.0907 86.9531C62.1331 87.0942 62.1461 87.2425 62.129 87.3888C62.1119 87.5351 62.065 87.6764 61.9912 87.8039C61.9174 87.9314 61.8182 88.0425 61.6998 88.1302C61.5815 88.2179 61.4464 88.2804 61.3029 88.3139C61.1595 88.3475 61.0106 88.3512 60.8657 88.325C60.7207 88.2988 60.5826 88.2432 60.46 88.1615L46.0786 79.8615L32.2333 87.8515V103.838L46.6179 112.145C46.824 112.263 46.9853 112.445 47.0766 112.665C47.1678 112.884 47.1839 113.127 47.1223 113.357C47.0607 113.586 46.9249 113.789 46.7361 113.933C46.5473 114.077 46.3161 114.154 46.0786 114.153Z" fill="#FFA800" fill-opacity="0.15"/>
<path fill-rule="evenodd" clip-rule="evenodd" d="M60.9993 105.537C60.7141 105.537 60.4405 105.423 60.2389 105.222C60.0372 105.02 59.9239 104.747 59.9239 104.461V87.2314C59.9239 86.8471 60.1273 86.4886 60.46 86.2948L75.3807 77.6815C75.7166 77.4877 76.13 77.4877 76.4594 77.6815L91.3802 86.298C91.5137 86.3626 91.6326 86.4539 91.7292 86.5664C91.8259 86.6789 91.8983 86.8102 91.942 86.9519C91.9856 87.0937 91.9996 87.2429 91.9829 87.3903C91.9663 87.5377 91.9195 87.6801 91.8453 87.8086C91.7712 87.937 91.6713 88.0488 91.552 88.137C91.4327 88.2251 91.2965 88.2877 91.152 88.3208C91.0074 88.3539 90.8575 88.3569 90.7117 88.3295C90.566 88.3021 90.4274 88.2449 90.3047 88.1615L75.9201 79.8614L62.078 87.8515V104.461C62.078 105.056 61.5936 105.537 60.9993 105.537ZM75.9265 114.153C75.6901 114.153 75.4605 114.074 75.273 113.93C75.0855 113.786 74.9505 113.584 74.8889 113.356C74.8272 113.128 74.8423 112.885 74.9317 112.667C75.0212 112.448 75.1801 112.264 75.384 112.145L90.3047 103.528C90.4275 103.451 90.5646 103.399 90.7077 103.377C90.8508 103.354 90.9971 103.36 91.1377 103.395C91.2784 103.43 91.4106 103.493 91.5264 103.58C91.6422 103.667 91.7393 103.777 91.8118 103.902C91.8843 104.028 91.9308 104.166 91.9485 104.31C91.9662 104.454 91.9547 104.6 91.9147 104.739C91.8747 104.879 91.807 105.009 91.7158 105.121C91.6245 105.234 91.5114 105.327 91.3834 105.395L76.4627 114.011C76.2997 114.105 76.1147 114.154 75.9265 114.153Z" fill="#FFA800" fill-opacity="0.15"/>
<path fill-rule="evenodd" clip-rule="evenodd" d="M105.768 79.6935C105.627 79.6935 105.486 79.6656 105.356 79.6114C105.225 79.5571 105.106 79.4776 105.006 79.3774C104.907 79.2772 104.827 79.1583 104.774 79.0274C104.72 78.8965 104.692 78.7564 104.693 78.6148V62.0082L90.8441 54.0182L76.9988 62.0082V78.6181C76.9837 78.8935 76.8636 79.1528 76.6633 79.3424C76.463 79.5321 76.1976 79.6378 75.9217 79.6378C75.6458 79.6378 75.3804 79.5321 75.1801 79.3424C74.9798 79.1528 74.8597 78.8935 74.8446 78.6181V61.3882C74.8446 61.0006 75.0481 60.6454 75.384 60.4548L90.3047 51.8415C90.6406 51.6477 91.0508 51.6477 91.3834 51.8415L106.304 60.4548C106.637 60.6486 106.847 61.0038 106.847 61.3882V78.6181C106.847 79.2123 106.362 79.6935 105.768 79.6935ZM60.9993 53.8438C60.7141 53.8438 60.4405 53.7305 60.2389 53.5288C60.0372 53.3271 59.9239 53.0536 59.9239 52.7684V35.5384C59.9239 35.1541 60.1273 34.7956 60.46 34.6018L75.3807 25.9885C75.5449 25.8944 75.7309 25.845 75.9201 25.845C76.1093 25.845 76.2952 25.8944 76.4594 25.9885L91.3802 34.6051C91.5137 34.6696 91.6326 34.7609 91.7292 34.8735C91.8259 34.986 91.8983 35.1172 91.942 35.259C91.9856 35.4007 91.9996 35.55 91.9829 35.6973C91.9663 35.8447 91.9195 35.9871 91.8453 36.1156C91.7712 36.2441 91.6713 36.3559 91.552 36.444C91.4327 36.5321 91.2965 36.5947 91.152 36.6278C91.0074 36.661 90.8575 36.6639 90.7117 36.6365C90.566 36.6091 90.4274 36.5519 90.3047 36.4686L75.9201 28.1685L62.078 36.1617V52.7684C62.078 53.3626 61.5936 53.847 60.9993 53.8438Z" fill="#FFA800" fill-opacity="0.15"/>
<path fill-rule="evenodd" clip-rule="evenodd" d="M31.1588 53.8439C31.0173 53.8443 30.8771 53.8168 30.7462 53.7629C30.6154 53.7091 30.4964 53.6299 30.3962 53.53C30.296 53.4301 30.2165 53.3114 30.1622 53.1807C30.108 53.05 30.0801 52.9099 30.0801 52.7684V35.5385C30.0801 35.1542 30.2835 34.7957 30.6194 34.6019L45.5402 25.9885C45.704 25.8951 45.8893 25.8459 46.0779 25.8459C46.2665 25.8459 46.4518 25.8951 46.6156 25.9885L61.5396 34.6051C61.6715 34.6708 61.7885 34.7628 61.8834 34.8755C61.9784 34.9882 62.0492 35.1191 62.0916 35.2602C62.134 35.4013 62.1471 35.5496 62.1299 35.6959C62.1128 35.8422 62.0659 35.9835 61.9921 36.111C61.9183 36.2385 61.8192 36.3495 61.7008 36.4373C61.5824 36.525 61.4474 36.5875 61.3039 36.621C61.1604 36.6545 61.0116 36.6583 60.8666 36.6321C60.7217 36.6059 60.5836 36.5502 60.4609 36.4686L46.0795 28.1685L32.2342 36.1618V52.7684C32.2342 53.3627 31.7498 53.8471 31.1588 53.8439Z" fill="#FFA800" fill-opacity="0.15"/>
<path fill-rule="evenodd" clip-rule="evenodd" d="M75.9201 28.0006C75.6349 28.0006 75.3613 27.8873 75.1596 27.6856C74.9579 27.4839 74.8446 27.2104 74.8446 26.9251V10.3121L60.9993 2.32526L47.154 10.3153V26.9251C47.1389 27.2006 47.0189 27.4598 46.8185 27.6495C46.6182 27.8391 46.3528 27.9448 46.077 27.9448C45.8011 27.9448 45.5357 27.8391 45.3354 27.6495C45.135 27.4598 45.015 27.2006 44.9999 26.9251V9.69521C44.9999 9.30766 45.2066 8.9524 45.5392 8.76185L60.46 0.148506C60.7959 -0.0452702 61.2028 -0.0452702 61.5387 0.148506L76.4594 8.76185C76.7921 8.95563 76.9988 9.31089 76.9988 9.69521V26.9284C76.9988 27.5226 76.5143 28.0006 75.9201 28.0006ZM47.154 129.688L60.9993 137.678L74.8446 129.688V113.701L60.9993 105.705L47.154 113.698V129.688ZM60.9993 140C60.81 139.999 60.6241 139.949 60.46 139.855L45.5392 131.241C45.3747 131.147 45.2381 131.01 45.1434 130.846C45.0486 130.681 44.9991 130.495 44.9999 130.305V113.078C44.9999 112.69 45.2066 112.335 45.5392 112.145L60.46 103.528C60.6242 103.434 60.8101 103.385 60.9993 103.385C61.1885 103.385 61.3745 103.434 61.5387 103.528L76.4594 112.145C76.7953 112.338 76.9988 112.694 76.9988 113.078V130.305C76.9988 130.692 76.7921 131.048 76.4594 131.241L61.5387 139.855C61.3745 139.949 61.1887 139.999 60.9993 140ZM16.2306 62.4604C16.0424 62.4615 15.8574 62.4125 15.6945 62.3183L0.773719 53.7018C0.610076 53.6069 0.474161 53.4708 0.379526 53.307C0.284891 53.1433 0.234844 52.9576 0.234375 52.7684V35.5385C0.234375 35.1542 0.44107 34.7957 0.773719 34.6019L15.6945 25.9885C15.8587 25.8945 16.0446 25.845 16.2338 25.845C16.423 25.845 16.609 25.8945 16.7732 25.9885L31.6939 34.6051C31.9306 34.7535 32.1004 34.988 32.1677 35.2591C32.235 35.5302 32.1945 35.8168 32.0548 36.0587C31.915 36.3005 31.6869 36.4787 31.4184 36.5558C31.1499 36.6328 30.862 36.6027 30.6152 36.4718L16.237 28.1621L2.39175 36.1586V52.1451L16.7764 60.4484C16.9828 60.5665 17.1442 60.7497 17.2354 60.9694C17.3266 61.189 17.3424 61.4326 17.2804 61.6622C17.2184 61.8918 17.0821 62.0943 16.8927 62.2382C16.7033 62.382 16.4716 62.4591 16.2338 62.4572L16.2306 62.4604ZM105.768 62.4604C105.531 62.4616 105.299 62.384 105.111 62.2399C104.922 62.0958 104.786 61.8933 104.724 61.6639C104.663 61.4345 104.679 61.1911 104.77 60.9718C104.861 60.7525 105.023 60.5696 105.229 60.4516L119.613 52.1451V36.1586L105.768 28.1653L91.9195 36.1618V52.7684C91.9195 53.0541 91.8061 53.328 91.6041 53.53C91.4021 53.732 91.1281 53.8455 90.8425 53.8455C90.5568 53.8455 90.2828 53.732 90.0809 53.53C89.8789 53.328 89.7654 53.0541 89.7654 52.7684V35.5385C89.7654 35.1542 89.9753 34.7957 90.3047 34.6019L105.229 25.9885C105.393 25.8945 105.579 25.845 105.768 25.845C105.957 25.845 106.143 25.8945 106.307 25.9885L121.228 34.6051C121.564 34.7989 121.768 35.1542 121.768 35.5417V52.7684C121.768 53.1527 121.561 53.5112 121.228 53.705L106.307 62.3183C106.143 62.4123 105.957 62.4613 105.768 62.4604ZM16.2338 114.153C16.0447 114.154 15.8587 114.105 15.6945 114.011L0.773719 105.395C0.610076 105.3 0.474161 105.164 0.379526 105C0.284891 104.836 0.234844 104.651 0.234375 104.461V87.2315C0.234375 86.8472 0.44107 86.4887 0.773719 86.2949L15.6945 77.6815C16.0304 77.4878 16.4373 77.4878 16.7732 77.6815L31.6939 86.2981C31.941 86.4408 32.1214 86.6757 32.1953 86.9513C32.2692 87.2268 32.2305 87.5205 32.0879 87.7676C31.9453 88.0147 31.7104 88.1951 31.4348 88.2689C31.1592 88.3428 30.8656 88.3042 30.6185 88.1616L16.2338 79.8615L2.38852 87.8516V103.838L16.2338 111.835L30.6185 103.528C30.741 103.457 30.8763 103.412 31.0166 103.393C31.1568 103.375 31.2993 103.384 31.4359 103.421C31.5725 103.458 31.7006 103.521 31.8127 103.607C31.9249 103.694 32.0189 103.801 32.0895 103.924C32.1602 104.046 32.2059 104.182 32.2243 104.322C32.2426 104.462 32.2331 104.605 32.1964 104.741C32.1597 104.878 32.0964 105.006 32.0102 105.118C31.924 105.23 31.8165 105.324 31.6939 105.395L16.7732 114.011C16.6087 114.105 16.4229 114.154 16.2338 114.153ZM91.9195 103.838L105.768 111.835L119.613 103.838V87.8516L105.768 79.8583L91.9195 87.8516V103.838ZM105.768 114.153C105.579 114.154 105.393 114.105 105.229 114.011L90.308 105.395C90.1439 105.3 90.0075 105.164 89.9124 105C89.8172 104.837 89.7665 104.651 89.7654 104.461V87.2315C89.7654 86.8472 89.9753 86.4887 90.3047 86.2949L105.229 77.6815C105.561 77.4878 105.972 77.4878 106.307 77.6815L121.228 86.2981C121.564 86.4919 121.768 86.8472 121.768 87.2315V104.461C121.768 104.846 121.561 105.204 121.228 105.398L106.307 114.011C106.143 114.105 105.957 114.154 105.768 114.153Z" fill="#FFA800" fill-opacity="0.15"/>
</svg>
