<svg width="161" height="161" viewBox="0 0 161 161" fill="none" xmlns="http://www.w3.org/2000/svg">
<circle cx="80.5" cy="80.5" r="80.5" fill="#F8F8F8"/>
<g clip-path="url(#clip0_14_915)">
<path d="M110.506 68.451C109.467 68.2092 65.8167 58.0798 65.8167 58.0798L64.9411 61.8424L111.949 70.77C112.191 69.7311 111.545 68.6927 110.506 68.451Z" fill="#D8AB8C"/>
<path d="M64.9411 61.8424C64.9411 61.8424 108.591 71.9717 109.63 72.2136C110.669 72.4554 111.708 71.8091 111.949 70.77C110.958 70.5393 69.188 60.8452 65.3791 59.9612L64.9411 61.8424Z" fill="#C38778"/>
<path d="M59.9849 49.4499C55.2312 48.3436 50.9101 49.0533 48.9463 54.1527C48.4569 59.5952 49.8758 63.4617 56.3723 64.9736C62.8689 66.4854 65.8492 63.6426 67.8129 58.5433C68.3024 53.1007 64.7385 50.5561 59.9849 49.4499ZM55.4103 68.8615C55.2167 70.1799 54.6364 76.8228 54.6364 77.9838C54.6364 79.2937 57.4665 79.837 58.4031 78.5734C58.507 78.2628 58.5594 77.9374 58.5584 77.6099C58.5584 76.4178 57.8897 71.0818 57.9104 69.3848C57.8765 68.4917 55.6038 67.5431 55.4103 68.8615Z" fill="#FFC250"/>
<path d="M56.7744 63.2459C52.0206 62.1397 48.4569 59.595 48.9463 54.1526C48.7295 54.7156 48.5408 55.3312 48.3841 56.0048C47.3275 60.5448 48.4997 63.6799 51.2951 65.1429C53.5405 66.3179 54.1782 67.8752 54.1609 69.5317C54.1436 71.1882 53.513 76.452 53.513 77.6097C53.513 79.1732 54.5988 80.2658 56.0357 80.2658C57.1536 80.2658 58.0562 79.6029 58.4032 78.5731C57.1108 79.354 55.5823 78.62 55.5823 77.4604C55.5823 76.4327 56.0961 70.5518 56.2675 69.3848C56.4388 68.2176 57.8768 68.4916 57.9107 69.3848C57.9302 67.7855 58.3948 67.4283 60.8533 67.3673C64.0075 67.2889 66.4433 64.9934 67.4999 60.4535C67.6566 59.7799 67.7593 59.1442 67.8133 58.5433C65.8492 63.6424 61.528 64.3521 56.7744 63.2459Z" fill="#E69642"/>
<path d="M63.0198 83.6396L101.489 82.3519C98.9943 77.2233 95.5887 74.6247 95.5887 74.6247L82.1887 72.7329L68.7887 74.6242C68.7888 74.6242 64.9411 78.0169 63.0198 83.6396Z" fill="#F7F9FA"/>
<path d="M68.7888 74.6243C68.7888 74.6243 65.3829 77.223 62.8885 82.352L63.4901 82.7383L64.3077 82.352C66.0542 77.2391 68.7888 74.6243 68.7888 74.6243Z" fill="#DCE6EB"/>
<path d="M104.067 93.7608C104.067 89.1213 102.93 85.3148 101.489 82.3521H64.3075C62.8883 84.7401 61.5982 87.6983 61.5982 91.1849C61.5982 103.04 69.1204 111.711 69.1204 111.711L98.5813 110.424C98.8256 110.15 99.0496 109.859 99.2517 109.552C101.408 106.277 104.067 100.809 104.067 93.7608Z" fill="#FFE07D"/>
<path d="M68.7607 108.479C66.5467 105.549 62.8859 99.455 62.8859 91.185C62.8859 87.6982 63.4882 84.7507 64.3075 82.3522H62.8883C61.4474 85.3149 60.3105 89.1212 60.3105 93.7604C60.3105 100.809 62.9695 106.276 65.1256 109.552C66.5478 111.712 68.9726 112.999 71.5588 112.999L92.8185 113C95.0347 113 97.1316 112.054 98.5813 110.424L72.68 110.424C71.1412 110.424 69.6885 109.707 68.7607 108.479ZM89.925 77.6687C89.7315 78.9871 89.1511 85.63 89.1511 86.791C89.1511 88.1009 91.9813 88.6442 92.9178 87.3806C93.0217 87.07 93.0742 86.7446 93.0731 86.4171C93.0731 85.2251 92.4044 79.889 92.4251 78.192C92.3914 77.2989 90.1186 76.3504 89.925 77.6687Z" fill="#FFC250"/>
<path d="M90.5503 72.333C89.1511 72.333 82.6242 73.7107 85.6437 74.6258C88.0243 75.3473 88.693 76.6825 88.6757 78.3391C88.6583 79.9956 88.0277 85.2594 88.0277 86.417C88.0277 87.9806 89.1135 89.0732 90.5505 89.0732C91.6683 89.0732 92.5709 88.4103 92.9179 87.3805C91.6256 88.1614 90.097 87.4274 90.097 86.2678C90.097 85.2401 90.6108 79.3592 90.7822 78.1921C90.9535 77.0249 92.3915 77.299 92.4254 78.1921C92.4449 76.5929 93.0767 75.2426 95.4572 74.6258C98.5113 73.8346 91.9496 72.333 90.5503 72.333Z" fill="#E69642"/>
<path d="M94.7617 68.8311H70.26L69.6161 72.6942L96.6934 72.0504V70.7626C96.6933 69.6959 95.8286 68.8311 94.7617 68.8311Z" fill="#D8AB8C"/>
<path d="M70.26 71.0843V68.8308H69.6161C68.5494 68.8308 67.6846 69.6957 67.6846 70.7624V73.6598C67.6846 73.9159 67.7863 74.1616 67.9674 74.3427C68.1486 74.5238 68.3942 74.6256 68.6504 74.6256H95.7276C95.9838 74.6256 96.2294 74.5238 96.4105 74.3427C96.5916 74.1616 96.6934 73.9159 96.6934 73.6598V72.0501H71.2258C70.9697 72.0501 70.724 71.9484 70.5429 71.7672C70.3618 71.5861 70.26 71.3405 70.26 71.0843ZM57.7149 63.4648C57.6869 63.589 57.6345 63.7065 57.5609 63.8104C57.4873 63.9144 57.3938 64.0027 57.2859 64.0704C57.178 64.1381 57.0577 64.1837 56.9321 64.2047C56.8065 64.2257 56.6779 64.2217 56.5538 64.1928C56.4298 64.1639 56.3127 64.1108 56.2092 64.0364C56.1058 63.9621 56.0181 63.868 55.9511 63.7597C55.8842 63.6513 55.8394 63.5308 55.8192 63.405C55.7991 63.2792 55.804 63.1507 55.8337 63.0268L58.1686 52.9932C58.1966 52.8689 58.249 52.7514 58.3226 52.6475C58.3962 52.5436 58.4897 52.4552 58.5976 52.3875C58.7055 52.3199 58.8258 52.2742 58.9514 52.2532C59.0771 52.2322 59.2056 52.2363 59.3297 52.2651C59.4537 52.294 59.5709 52.3472 59.6743 52.4215C59.7777 52.4958 59.8654 52.5899 59.9324 52.6983C59.9993 52.8066 60.0442 52.9272 60.0643 53.053C60.0845 53.1787 60.0795 53.3073 60.0498 53.4311L57.7149 63.4648ZM62.7602 63.4323C62.7322 63.5566 62.6798 63.6741 62.6062 63.778C62.5326 63.8819 62.4391 63.9703 62.3312 64.038C62.2233 64.1056 62.103 64.1513 61.9774 64.1723C61.8517 64.1933 61.7232 64.1892 61.5991 64.1603C61.4751 64.1315 61.3579 64.0783 61.2545 64.004C61.1511 63.9297 61.0634 63.8356 60.9964 63.7272C60.9295 63.6188 60.8846 63.4983 60.8645 63.3725C60.8443 63.2468 60.8493 63.1182 60.879 62.9944L62.6813 55.2499C62.71 55.1264 62.7628 55.0097 62.8366 54.9066C62.9104 54.8035 63.0038 54.7159 63.1115 54.6489C63.2192 54.5819 63.339 54.5367 63.4641 54.516C63.5892 54.4953 63.7172 54.4995 63.8407 54.5283C63.9643 54.557 64.0809 54.6098 64.1841 54.6836C64.2872 54.7575 64.3748 54.8509 64.4418 54.9586C64.5088 55.0662 64.554 55.1861 64.5747 55.3112C64.5954 55.4363 64.5913 55.5643 64.5625 55.6879L62.7602 63.4323ZM53.2025 61.208C53.1745 61.3323 53.1221 61.4498 53.0485 61.5537C52.9749 61.6577 52.8814 61.746 52.7735 61.8137C52.6655 61.8813 52.5453 61.927 52.4197 61.948C52.294 61.969 52.1655 61.965 52.0414 61.9361C51.9174 61.9072 51.8002 61.8541 51.6968 61.7797C51.5934 61.7054 51.5056 61.6113 51.4387 61.5029C51.3718 61.3946 51.3269 61.274 51.3068 61.1482C51.2866 61.0225 51.2916 60.894 51.3213 60.7701L53.1236 53.0256C53.1523 52.9021 53.2051 52.7854 53.2789 52.6823C53.3527 52.5792 53.4461 52.4916 53.5538 52.4246C53.6615 52.3576 53.7813 52.3125 53.9064 52.2918C54.0315 52.2711 54.1595 52.2752 54.283 52.304C54.4066 52.3327 54.5232 52.3855 54.6264 52.4594C54.7295 52.5332 54.8171 52.6266 54.8841 52.7343C54.9511 52.842 54.9963 52.9618 55.017 53.0869C55.0377 53.2121 55.0335 53.34 55.0048 53.4636L53.2025 61.208Z" fill="#C38778"/>
</g>
<defs>
<clipPath id="clip0_14_915">
<rect width="64" height="64" fill="white" transform="translate(48 49)"/>
</clipPath>
</defs>
</svg>
