<svg width="161" height="161" viewBox="0 0 161 161" fill="none" xmlns="http://www.w3.org/2000/svg">
<circle cx="80.5" cy="80.5" r="80.5" fill="#F8F8F8"/>
<path d="M93.6494 57.9175L87.5972 50.3872H45.2744L40.2539 57.9175C39.2324 59.4499 38.5372 61.1762 38.2116 62.9889C37.886 64.8016 37.937 66.6619 38.3614 68.4541L45.5538 98.8227C45.995 100.685 47.6583 102 49.5718 102H84.3315C86.2452 102 87.9083 100.685 88.3497 98.8227L95.542 68.454C95.9664 66.6618 96.0174 64.8015 95.6918 62.9888C95.3662 61.1762 94.6711 59.4499 93.6495 57.9175H93.6494Z" fill="#F9EAC7"/>
<path d="M93.6494 57.9175L87.5972 50.3872H45.2744L40.2539 57.9175C39.2324 59.4499 38.5372 61.1762 38.2116 62.9889C37.886 64.8016 37.937 66.6619 38.3614 68.4541L45.5543 98.8227C45.995 100.685 47.6583 102 49.5718 102H55.9102L51.6613 68.4541C51.3874 66.2915 51.4103 64.0616 51.7072 61.9556C51.767 61.5313 51.9199 61.1255 52.1549 60.7672C52.3899 60.409 52.7012 60.1071 53.0665 59.8832C54.2243 59.1645 55.0603 58.645 56.9655 58.645C58.8718 58.645 59.7087 59.1645 60.8664 59.8832C62.2008 60.7113 63.8614 61.7421 66.945 61.7421C70.0275 61.7421 71.6882 60.7113 73.0222 59.8833C74.1794 59.1646 75.0158 58.645 76.921 58.645C78.8283 58.645 79.6657 59.1645 80.8244 59.8832C82.1589 60.7113 83.82 61.7421 86.9044 61.7421C89.9884 61.7421 91.6495 60.7113 92.984 59.8833C93.4699 59.5821 93.8977 59.3266 94.364 59.1221C94.1469 58.7084 93.9084 58.3064 93.6495 57.9175H93.6494Z" fill="#F4DBB3"/>
<path d="M49.083 97.8712H84.8204C85.2852 97.8711 85.7365 97.7143 86.1011 97.4259C86.4658 97.1376 86.7224 96.7346 86.8296 96.2823L93.5333 67.978C94.2495 64.9527 93.6836 61.7354 91.98 59.1363L86.6075 52.4517H46.3793L41.9715 59.0629C41.1071 60.3595 40.5188 61.8201 40.2433 63.3539C39.9678 64.8876 40.0109 66.4617 40.37 67.978L47.0738 96.2823C47.181 96.7346 47.4376 97.1375 47.8023 97.4258C48.1669 97.7142 48.6182 97.871 49.083 97.871V97.8712Z" fill="#FFC269"/>
<path d="M92.5659 60.1397C92.3881 59.7953 92.1926 59.4604 91.98 59.1363L86.6075 52.4517H46.3792L41.9715 59.0629C41.1071 60.3595 40.5188 61.8201 40.2433 63.3539C39.9678 64.8876 40.0109 66.4617 40.37 67.978L47.0737 96.2823C47.181 96.7346 47.4376 97.1375 47.8023 97.4258C48.1669 97.7142 48.6182 97.871 49.083 97.871H55.3872L51.6611 68.4542C51.3872 66.2915 51.4101 64.0617 51.707 61.9557C51.7666 61.5334 51.9184 61.1293 52.1515 60.7722C52.3847 60.4151 52.6935 60.1136 53.0561 59.8892C53.0596 59.8873 53.063 59.8853 53.0664 59.8829C54.2241 59.1645 55.0601 58.645 56.9654 58.645C58.8716 58.645 59.7085 59.1645 60.8662 59.8833C62.2006 60.7114 63.8612 61.7418 66.9449 61.7418C70.0274 61.7418 71.688 60.711 73.022 59.8829C74.1792 59.1645 75.0156 58.645 76.9209 58.645C78.8281 58.645 79.6655 59.1645 80.8242 59.8833C82.1587 60.7114 83.8199 61.7418 86.9043 61.7418C89.6772 61.7418 91.2969 60.9097 92.5659 60.1397Z" fill="#FFA95F"/>
<path d="M88.6289 38H45.2744C44.1344 38 43.21 38.9244 43.21 40.0645V44.1933C43.21 45.3335 44.1343 46.2579 45.2744 46.2579H88.6294C89.7695 46.2579 90.6939 45.3335 90.6939 44.1934V40.0645C90.6934 38.9244 89.7695 38 88.6288 38H88.6289ZM95.3599 55.0532C95.9409 55.6342 95.6368 56.6104 94.8349 56.793C91.7681 57.4917 91.0976 59.6772 86.9043 59.6772C81.9126 59.6772 81.9126 56.5806 76.9209 56.5806C71.9326 56.5806 71.9326 59.6772 66.9449 59.6772C61.9551 59.6772 61.9551 56.5806 56.9654 56.5806C51.9775 56.5806 51.9775 59.6772 46.9893 59.6772C42.8008 59.6772 42.1304 57.4922 39.0674 56.793C38.2661 56.6104 37.9619 55.6347 38.543 55.0537L42.3028 51.294C42.5903 51.0065 42.9316 50.7784 43.3073 50.6229C43.683 50.4673 44.0856 50.3872 44.4923 50.3872H89.4106C90.2319 50.3872 91.0195 50.7134 91.6006 51.294L95.3599 55.0532Z" fill="#FF8B5A"/>
<path d="M75.7759 49.355H73.5112L75.0435 52.7475C75.1252 52.9286 75.2575 53.0823 75.4245 53.1901C75.5915 53.2978 75.786 53.3551 75.9847 53.355C76.126 53.355 76.271 53.3256 76.4082 53.2631C76.5318 53.2074 76.6432 53.1279 76.7361 53.0292C76.8289 52.9304 76.9014 52.8143 76.9493 52.6875C76.9973 52.5608 77.0197 52.4258 77.0154 52.2903C77.0112 52.1548 76.9802 52.0215 76.9244 51.898L75.7759 49.355ZM57.8994 50.3872H44.4926C43.6714 50.3872 42.8839 50.7134 42.3026 51.294L38.5431 55.0537C37.962 55.6347 38.2663 56.6104 39.0675 56.793C42.1305 57.4922 42.8009 59.6777 46.9899 59.6777C51.4205 59.6777 51.923 57.2387 55.4743 56.6929L57.8994 50.3872Z" fill="#FF7350"/>
<path d="M51.6954 49.3551L49.0371 53.7214C48.9666 53.8372 48.9196 53.9658 48.8989 54.0998C48.8781 54.2338 48.884 54.3706 48.9161 54.5023C48.9483 54.6341 49.0061 54.7582 49.0863 54.8676C49.1665 54.9769 49.2674 55.0694 49.3834 55.1397C49.5443 55.2386 49.7295 55.2908 49.9184 55.2906C50.0957 55.2908 50.2701 55.2452 50.4247 55.1584C50.5794 55.0716 50.709 54.9465 50.8012 54.795L54.1127 49.355L51.6954 49.3551Z" fill="#FF8B5A"/>
<path d="M54.5645 41.0966V38H45.2745C44.1341 38 43.21 38.9244 43.21 40.0645V44.1933C43.21 45.334 44.1342 46.2579 45.2744 46.2579H88.6294C89.7695 46.2579 90.6939 45.3335 90.6939 44.1934H57.6611C55.9511 44.1934 54.5645 42.8071 54.5645 41.0966Z" fill="#FF7350"/>
<path d="M87.5966 50.3873H46.3066C45.1665 50.3873 44.2421 49.4629 44.2421 48.3228C44.2421 47.1827 45.1665 46.2583 46.3066 46.2583H87.5971C88.7373 46.2583 89.6616 47.1827 89.6616 48.3228C89.6611 49.4629 88.7369 50.3873 87.5966 50.3873Z" fill="#9F6E50"/>
<path d="M87.5966 46.2583H54.5645C54.2907 46.2583 54.0282 46.3671 53.8346 46.5606C53.641 46.7542 53.5322 47.0168 53.5322 47.2906C53.5322 47.5643 53.641 47.8269 53.8346 48.0205C54.0282 48.214 54.2907 48.3228 54.5645 48.3228H89.6611C89.6611 47.1827 88.7369 46.2583 87.5966 46.2583Z" fill="#B57F5F"/>
<path d="M114.649 79.9175L108.597 72.3872H66.2744L61.2539 79.9175C60.2324 81.4499 59.5372 83.1762 59.2116 84.9889C58.886 86.8016 58.937 88.6619 59.3614 90.4541L66.5538 120.823C66.995 122.685 68.6583 124 70.5718 124H105.332C107.245 124 108.908 122.685 109.35 120.823L116.542 90.454C116.966 88.6618 117.017 86.8015 116.692 84.9888C116.366 83.1762 115.671 81.4499 114.65 79.9175H114.649Z" fill="#F9EAC7"/>
<path d="M114.649 79.9175L108.597 72.3872H66.2744L61.2539 79.9175C60.2324 81.4499 59.5372 83.1762 59.2116 84.9889C58.886 86.8016 58.937 88.6619 59.3614 90.4541L66.5543 120.823C66.995 122.685 68.6583 124 70.5718 124H76.9102L72.6613 90.4541C72.3874 88.2915 72.4103 86.0616 72.7072 83.9556C72.767 83.5313 72.9199 83.1255 73.1549 82.7672C73.3899 82.409 73.7012 82.1071 74.0665 81.8832C75.2243 81.1645 76.0603 80.645 77.9655 80.645C79.8718 80.645 80.7087 81.1645 81.8664 81.8832C83.2008 82.7113 84.8614 83.7421 87.945 83.7421C91.0275 83.7421 92.6882 82.7113 94.0222 81.8833C95.1794 81.1646 96.0158 80.645 97.921 80.645C99.8283 80.645 100.666 81.1645 101.824 81.8832C103.159 82.7113 104.82 83.7421 107.904 83.7421C110.988 83.7421 112.65 82.7113 113.984 81.8833C114.47 81.5821 114.898 81.3266 115.364 81.1221C115.147 80.7084 114.908 80.3064 114.65 79.9175H114.649Z" fill="#F4DBB3"/>
<path d="M70.083 119.871H105.82C106.285 119.871 106.737 119.714 107.101 119.426C107.466 119.138 107.722 118.735 107.83 118.282L114.533 89.978C115.25 86.9527 114.684 83.7354 112.98 81.1363L107.608 74.4517H67.3793L62.9715 81.0629C62.1071 82.3595 61.5188 83.8201 61.2433 85.3539C60.9678 86.8876 61.0109 88.4617 61.37 89.978L68.0738 118.282C68.181 118.735 68.4376 119.138 68.8023 119.426C69.1669 119.714 69.6182 119.871 70.083 119.871V119.871Z" fill="#725731"/>
<path d="M113.566 82.1397C113.388 81.7953 113.193 81.4604 112.98 81.1363L107.607 74.4517H67.3792L62.9715 81.0629C62.1071 82.3595 61.5188 83.8201 61.2433 85.3539C60.9678 86.8876 61.0109 88.4617 61.37 89.978L68.0737 118.282C68.181 118.735 68.4376 119.138 68.8023 119.426C69.1669 119.714 69.6182 119.871 70.083 119.871H76.3872L72.6611 90.4542C72.3872 88.2915 72.4101 86.0617 72.707 83.9557C72.7666 83.5334 72.9184 83.1293 73.1515 82.7722C73.3847 82.4151 73.6935 82.1136 74.0561 81.8892C74.0596 81.8873 74.063 81.8853 74.0664 81.8829C75.2241 81.1645 76.0601 80.645 77.9654 80.645C79.8716 80.645 80.7085 81.1645 81.8662 81.8833C83.2006 82.7114 84.8612 83.7418 87.9449 83.7418C91.0274 83.7418 92.688 82.711 94.022 81.8829C95.1792 81.1645 96.0156 80.645 97.9209 80.645C99.8281 80.645 100.666 81.1645 101.824 81.8833C103.159 82.7114 104.82 83.7418 107.904 83.7418C110.677 83.7418 112.297 82.9097 113.566 82.1397Z" fill="#B89272"/>
<path d="M109.629 60H66.2744C65.1344 60 64.21 60.9244 64.21 62.0645V66.1933C64.21 67.3335 65.1343 68.2579 66.2744 68.2579H109.629C110.77 68.2579 111.694 67.3335 111.694 66.1934V62.0645C111.693 60.9244 110.77 60 109.629 60H109.629ZM116.36 77.0532C116.941 77.6342 116.637 78.6104 115.835 78.793C112.768 79.4917 112.098 81.6772 107.904 81.6772C102.913 81.6772 102.913 78.5806 97.9209 78.5806C92.9326 78.5806 92.9326 81.6772 87.9449 81.6772C82.9551 81.6772 82.9551 78.5806 77.9654 78.5806C72.9775 78.5806 72.9775 81.6772 67.9893 81.6772C63.8008 81.6772 63.1304 79.4922 60.0674 78.793C59.2661 78.6104 58.9619 77.6347 59.543 77.0537L63.3028 73.294C63.5903 73.0065 63.9316 72.7784 64.3073 72.6229C64.683 72.4673 65.0856 72.3872 65.4923 72.3872H110.411C111.232 72.3872 112.02 72.7134 112.601 73.294L116.36 77.0532Z" fill="#FF8B5A"/>
<path d="M96.7759 71.355H94.5112L96.0435 74.7475C96.1252 74.9286 96.2575 75.0823 96.4245 75.1901C96.5915 75.2978 96.786 75.3551 96.9847 75.355C97.126 75.355 97.271 75.3256 97.4082 75.2631C97.5318 75.2074 97.6432 75.1279 97.7361 75.0292C97.8289 74.9304 97.9014 74.8143 97.9493 74.6875C97.9973 74.5608 98.0197 74.4258 98.0154 74.2903C98.0112 74.1548 97.9802 74.0215 97.9244 73.898L96.7759 71.355ZM78.8994 72.3872H65.4926C64.6714 72.3872 63.8839 72.7134 63.3026 73.294L59.5431 77.0537C58.962 77.6347 59.2663 78.6104 60.0675 78.793C63.1305 79.4922 63.8009 81.6777 67.9899 81.6777C72.4205 81.6777 72.923 79.2387 76.4743 78.6929L78.8994 72.3872Z" fill="#FF7350"/>
<path d="M72.6954 71.3551L70.0371 75.7214C69.9666 75.8372 69.9196 75.9658 69.8989 76.0998C69.8781 76.2338 69.884 76.3706 69.9161 76.5023C69.9483 76.6341 70.0061 76.7582 70.0863 76.8676C70.1665 76.9769 70.2674 77.0694 70.3834 77.1397C70.5443 77.2386 70.7295 77.2908 70.9184 77.2906C71.0957 77.2908 71.2701 77.2452 71.4247 77.1584C71.5794 77.0716 71.709 76.9465 71.8012 76.795L75.1127 71.355L72.6954 71.3551Z" fill="#FF8B5A"/>
<path d="M75.5645 63.0966V60H66.2745C65.1341 60 64.21 60.9244 64.21 62.0645V66.1933C64.21 67.334 65.1342 68.2579 66.2744 68.2579H109.629C110.77 68.2579 111.694 67.3335 111.694 66.1934H78.6611C76.9511 66.1934 75.5645 64.8071 75.5645 63.0966Z" fill="#FF7350"/>
<path d="M108.597 72.3873H67.3066C66.1665 72.3873 65.2421 71.4629 65.2421 70.3228C65.2421 69.1827 66.1665 68.2583 67.3066 68.2583H108.597C109.737 68.2583 110.662 69.1827 110.662 70.3228C110.661 71.4629 109.737 72.3873 108.597 72.3873Z" fill="#9F6E50"/>
<path d="M108.597 68.2583H75.5645C75.2907 68.2583 75.0282 68.3671 74.8346 68.5606C74.641 68.7542 74.5323 69.0168 74.5323 69.2906C74.5323 69.5643 74.641 69.8269 74.8346 70.0205C75.0282 70.214 75.2907 70.3228 75.5645 70.3228H110.661C110.661 69.1827 109.737 68.2583 108.597 68.2583Z" fill="#B57F5F"/>
</svg>
