<svg width="170" height="194" viewBox="0 0 170 194" fill="none" xmlns="http://www.w3.org/2000/svg">
<path fill-rule="evenodd" clip-rule="evenodd" d="M64.3209 110.432C64.1245 110.433 63.9298 110.395 63.7482 110.32C63.5666 110.245 63.4016 110.135 63.2627 109.996C63.1237 109.857 63.0137 109.692 62.9388 109.51C62.8639 109.329 62.8256 109.134 62.8262 108.938V85.062C62.8262 84.5249 63.1126 84.0327 63.5736 83.7686L84.2495 71.833C84.7149 71.5645 85.2788 71.5645 85.7442 71.833L106.42 83.7686C106.59 83.8665 106.739 83.9968 106.858 84.1522C106.978 84.3076 107.066 84.485 107.116 84.6743C107.167 84.8636 107.18 85.0611 107.155 85.2554C107.13 85.4498 107.066 85.6373 106.968 85.8071C106.871 85.977 106.74 86.1259 106.585 86.2453C106.429 86.3648 106.252 86.4525 106.063 86.5034C105.873 86.5543 105.676 86.5674 105.482 86.542C105.287 86.5166 105.1 86.4532 104.93 86.3553L84.9968 74.8493L65.8112 85.9212V108.938C65.8112 109.761 65.1399 110.432 64.3209 110.432Z" fill="#7DAF6E" fill-opacity="0.15"/>
<path fill-rule="evenodd" clip-rule="evenodd" d="M22.9649 110.432C22.7688 110.432 22.5747 110.394 22.3936 110.319C22.2125 110.243 22.048 110.133 21.9095 109.994C21.7711 109.856 21.6614 109.691 21.5868 109.509C21.5121 109.328 21.474 109.134 21.4746 108.938V85.062C21.4746 84.5249 21.7566 84.0327 22.2175 83.7686L42.8934 71.833C43.3589 71.5645 43.9227 71.5645 44.3882 71.833L65.0641 83.7686C65.2339 83.8665 65.3828 83.9968 65.5023 84.1522C65.6218 84.3076 65.7095 84.485 65.7604 84.6743C65.8113 84.8636 65.8244 85.0611 65.799 85.2554C65.7736 85.4498 65.7102 85.6373 65.6123 85.8071C65.5145 85.977 65.3841 86.1259 65.2287 86.2453C65.0733 86.3648 64.8959 86.4525 64.7066 86.5034C64.5173 86.5543 64.3198 86.5674 64.1255 86.542C63.9311 86.5166 63.7436 86.4532 63.5738 86.3553L43.6408 74.8493L24.4552 85.9212V108.938C24.4552 109.761 23.7883 110.432 22.9649 110.432ZM64.3212 158.184C64.059 158.186 63.8009 158.118 63.5738 157.987L42.8979 146.047C42.6708 145.916 42.4822 145.727 42.3511 145.5C42.2199 145.273 42.1507 145.016 42.1505 144.754V120.878C42.1505 120.345 42.4325 119.849 42.8979 119.58L63.5738 107.644C64.0348 107.376 64.6031 107.376 65.0641 107.644L85.7445 119.584C85.9272 119.676 86.0893 119.803 86.2209 119.959C86.3524 120.115 86.4506 120.297 86.5094 120.492C86.5681 120.688 86.5862 120.893 86.5625 121.096C86.5388 121.299 86.4738 121.494 86.3715 121.671C86.2692 121.848 86.1318 122.002 85.9678 122.123C85.8038 122.245 85.6166 122.332 85.4178 122.378C85.219 122.424 85.0128 122.43 84.8119 122.393C84.611 122.357 84.4197 122.28 84.2497 122.167L64.3212 110.665L45.1356 121.737V143.89L65.0686 155.4C65.3542 155.564 65.5777 155.817 65.7041 156.121C65.8306 156.425 65.8529 156.762 65.7675 157.08C65.6822 157.398 65.494 157.679 65.2324 157.878C64.9707 158.078 64.6503 158.186 64.3212 158.184Z" fill="#7DAF6E" fill-opacity="0.15"/>
<path fill-rule="evenodd" clip-rule="evenodd" d="M84.9981 146.244C84.6028 146.244 84.2238 146.087 83.9443 145.808C83.6648 145.528 83.5078 145.149 83.5078 144.754V120.878C83.5078 120.345 83.7898 119.849 84.2507 119.58L104.927 107.645C105.392 107.376 105.965 107.376 106.421 107.645L127.097 119.585C127.282 119.674 127.447 119.801 127.581 119.957C127.715 120.112 127.815 120.294 127.876 120.491C127.936 120.687 127.956 120.894 127.933 121.098C127.909 121.302 127.845 121.5 127.742 121.678C127.639 121.856 127.501 122.011 127.335 122.133C127.17 122.255 126.981 122.342 126.781 122.388C126.581 122.434 126.373 122.438 126.171 122.4C125.969 122.362 125.777 122.282 125.607 122.167L105.674 110.665L86.4928 121.737V144.754C86.4928 145.577 85.8215 146.244 84.9981 146.244ZM105.683 158.184C105.355 158.183 105.037 158.074 104.777 157.875C104.517 157.675 104.33 157.395 104.245 157.079C104.16 156.763 104.18 156.427 104.304 156.124C104.428 155.821 104.649 155.566 104.931 155.4L125.607 143.46C125.777 143.354 125.967 143.282 126.165 143.251C126.364 143.219 126.566 143.228 126.761 143.276C126.956 143.324 127.139 143.412 127.3 143.532C127.46 143.653 127.595 143.805 127.695 143.979C127.796 144.153 127.86 144.345 127.885 144.544C127.909 144.744 127.893 144.946 127.838 145.139C127.783 145.332 127.689 145.512 127.562 145.668C127.436 145.824 127.279 145.953 127.102 146.047L106.426 157.987C106.2 158.117 105.944 158.185 105.683 158.184Z" fill="#7DAF6E" fill-opacity="0.15"/>
<path fill-rule="evenodd" clip-rule="evenodd" d="M147.035 110.432C146.839 110.432 146.645 110.394 146.463 110.319C146.282 110.243 146.118 110.133 145.979 109.994C145.841 109.856 145.731 109.691 145.657 109.509C145.582 109.328 145.544 109.134 145.544 108.938V85.9257L126.354 74.8538L107.169 85.9257V108.942C107.148 109.324 106.981 109.683 106.704 109.946C106.426 110.209 106.059 110.355 105.676 110.355C105.294 110.355 104.926 110.209 104.649 109.946C104.371 109.683 104.205 109.324 104.184 108.942V85.0664C104.184 84.5294 104.466 84.0371 104.931 83.7731L125.607 71.8374C126.072 71.5689 126.641 71.5689 127.102 71.8374L147.778 83.7731C148.239 84.0416 148.53 84.5339 148.53 85.0664V108.942C148.53 109.766 147.858 110.432 147.035 110.432ZM84.9981 74.6121C84.6028 74.6121 84.2238 74.4551 83.9443 74.1756C83.6648 73.8961 83.5078 73.5171 83.5078 73.1218V49.2461C83.5078 48.7135 83.7898 48.2168 84.2507 47.9482L104.927 36.0126C105.154 35.8823 105.412 35.8137 105.674 35.8137C105.936 35.8137 106.194 35.8823 106.421 36.0126L127.097 47.9527C127.282 48.0421 127.447 48.1687 127.581 48.3246C127.715 48.4805 127.815 48.6624 127.876 48.8588C127.936 49.0552 127.956 49.2621 127.933 49.4663C127.909 49.6705 127.845 49.8678 127.742 50.0459C127.639 50.2239 127.501 50.3788 127.335 50.5009C127.17 50.6231 126.981 50.7098 126.781 50.7557C126.581 50.8016 126.373 50.8057 126.171 50.7677C125.969 50.7297 125.777 50.6505 125.607 50.535L105.674 39.0334L86.4928 50.1098V73.1218C86.4928 73.9453 85.8215 74.6166 84.9981 74.6121Z" fill="#7DAF6E" fill-opacity="0.15"/>
<path fill-rule="evenodd" clip-rule="evenodd" d="M43.6451 74.6123C43.4491 74.6129 43.2548 74.5748 43.0735 74.5001C42.8921 74.4255 42.7273 74.3158 42.5885 74.1774C42.4496 74.039 42.3394 73.8745 42.2643 73.6934C42.1891 73.5123 42.1504 73.3181 42.1504 73.122V49.2463C42.1504 48.7137 42.4323 48.2169 42.8978 47.9484L63.5737 36.0128C63.8007 35.8833 64.0575 35.8152 64.3188 35.8152C64.5801 35.8152 64.837 35.8833 65.0639 36.0128L85.7443 47.9529C85.9271 48.044 86.0892 48.1715 86.2207 48.3276C86.3523 48.4837 86.4505 48.6651 86.5092 48.8606C86.568 49.0561 86.5861 49.2616 86.5623 49.4644C86.5386 49.6672 86.4736 49.8629 86.3714 50.0396C86.2691 50.2163 86.1317 50.3702 85.9677 50.4917C85.8036 50.6133 85.6165 50.6999 85.4177 50.7464C85.2189 50.7928 85.0127 50.798 84.8118 50.7617C84.6109 50.7254 84.4195 50.6483 84.2496 50.5352L64.3211 39.0336L45.1354 50.11V73.122C45.1354 73.9455 44.4641 74.6168 43.6451 74.6123Z" fill="#7DAF6E" fill-opacity="0.15"/>
<path fill-rule="evenodd" clip-rule="evenodd" d="M105.674 38.8008C105.278 38.8008 104.899 38.6438 104.62 38.3643C104.34 38.0848 104.183 37.7058 104.183 37.3105V14.2896L84.9978 3.22214L65.8121 14.294V37.3105C65.7912 37.6922 65.6249 38.0514 65.3473 38.3142C65.0697 38.5771 64.7019 38.7235 64.3196 38.7235C63.9374 38.7235 63.5696 38.5771 63.292 38.3142C63.0144 38.0514 62.848 37.6922 62.8271 37.3105V13.4348C62.8271 12.8977 63.1135 12.4055 63.5745 12.1414L84.2504 0.205783C84.7158 -0.0627351 85.2797 -0.0627351 85.7452 0.205783L106.421 12.1414C106.882 12.4099 107.168 12.9022 107.168 13.4348V37.315C107.168 38.1385 106.497 38.8008 105.674 38.8008ZM65.8121 179.71L84.9978 190.782L104.183 179.71V157.558L84.9978 146.477L65.8121 157.553V179.71ZM84.9978 194C84.7354 193.999 84.4779 193.929 84.2504 193.799L63.5745 181.863C63.3465 181.732 63.1572 181.543 63.0259 181.315C62.8947 181.087 62.8261 180.828 62.8271 180.565V156.694C62.8271 156.157 63.1135 155.664 63.5745 155.4L84.2504 143.46C84.4779 143.33 84.7356 143.261 84.9978 143.261C85.26 143.261 85.5176 143.33 85.7452 143.46L106.421 155.4C106.887 155.669 107.168 156.161 107.168 156.694V180.565C107.168 181.102 106.882 181.594 106.421 181.863L85.7452 193.799C85.5177 193.929 85.2602 193.999 84.9978 194ZM22.9611 86.5523C22.7004 86.5538 22.444 86.4859 22.2182 86.3554L1.5423 74.4153C1.31554 74.2839 1.1272 74.0953 0.996059 73.8683C0.864922 73.6414 0.795571 73.384 0.794922 73.1219V49.2462C0.794922 48.7136 1.08134 48.2169 1.5423 47.9483L22.2182 36.0127C22.4457 35.8824 22.7034 35.8138 22.9656 35.8138C23.2278 35.8138 23.4854 35.8824 23.713 36.0127L44.3889 47.9528C44.7168 48.1585 44.9521 48.4833 45.0454 48.859C45.1386 49.2346 45.0825 49.6318 44.8889 49.967C44.6952 50.3021 44.3791 50.5491 44.0071 50.6559C43.635 50.7626 43.236 50.721 42.8941 50.5395L22.9701 39.0246L3.78443 50.1054V72.2582L23.7174 83.7642C24.0034 83.9279 24.2271 84.1818 24.3535 84.4861C24.4799 84.7904 24.5018 85.1281 24.4159 85.4462C24.3299 85.7643 24.141 86.045 23.8786 86.2443C23.6162 86.4437 23.2951 86.5504 22.9656 86.5479L22.9611 86.5523ZM147.034 86.5523C146.705 86.5539 146.385 86.4464 146.123 86.2467C145.862 86.0471 145.673 85.7664 145.588 85.4485C145.503 85.1306 145.525 84.7934 145.651 84.4895C145.778 84.1857 146.001 83.9322 146.287 83.7687L166.22 72.2582V50.1054L147.034 39.0291L127.844 50.1099V73.1219C127.844 73.5178 127.687 73.8974 127.407 74.1773C127.127 74.4572 126.748 74.6144 126.352 74.6144C125.956 74.6144 125.576 74.4572 125.296 74.1773C125.017 73.8974 124.859 73.5178 124.859 73.1219V49.2462C124.859 48.7136 125.15 48.2169 125.607 47.9483L146.287 36.0127C146.515 35.8824 146.772 35.8138 147.034 35.8138C147.297 35.8138 147.554 35.8824 147.782 36.0127L168.458 47.9528C168.923 48.2213 169.205 48.7136 169.205 49.2506V73.1219C169.205 73.6545 168.919 74.1513 168.458 74.4198L147.782 86.3554C147.554 86.4856 147.297 86.5536 147.034 86.5523ZM22.9656 158.184C22.7035 158.185 22.4458 158.117 22.2182 157.987L1.5423 146.047C1.31554 145.916 1.1272 145.727 0.996059 145.5C0.864922 145.273 0.795571 145.016 0.794922 144.754V120.878C0.794922 120.345 1.08134 119.849 1.5423 119.58L22.2182 107.644C22.6836 107.376 23.2475 107.376 23.713 107.644L44.3889 119.585C44.7313 119.782 44.9812 120.108 45.0836 120.49C45.186 120.871 45.1325 121.278 44.9349 121.621C44.7372 121.963 44.4117 122.213 44.0298 122.316C43.6479 122.418 43.241 122.364 42.8986 122.167L22.9656 110.665L3.77995 121.737V143.89L22.9656 154.971L42.8986 143.46C43.0684 143.362 43.2559 143.299 43.4503 143.274C43.6446 143.248 43.8421 143.261 44.0314 143.312C44.2207 143.363 44.3981 143.451 44.5535 143.57C44.7089 143.69 44.8392 143.839 44.9371 144.009C45.0349 144.178 45.0984 144.366 45.1238 144.56C45.1492 144.755 45.1361 144.952 45.0852 145.141C45.0343 145.331 44.9466 145.508 44.8271 145.663C44.7076 145.819 44.5587 145.949 44.3889 146.047L23.713 157.987C23.4851 158.116 23.2276 158.184 22.9656 158.184ZM127.844 143.89L147.034 154.971L166.22 143.89V121.737L147.034 110.661L127.844 121.737V143.89ZM147.034 158.184C146.772 158.185 146.515 158.117 146.287 157.987L125.611 146.047C125.384 145.916 125.195 145.727 125.063 145.5C124.931 145.274 124.861 145.016 124.859 144.754V120.878C124.859 120.345 125.15 119.849 125.607 119.58L146.287 107.644C146.748 107.376 147.316 107.376 147.782 107.644L168.458 119.585C168.923 119.853 169.205 120.345 169.205 120.878V144.754C169.205 145.286 168.919 145.783 168.458 146.051L147.782 157.987C147.554 158.116 147.296 158.184 147.034 158.184Z" fill="#7DAF6E" fill-opacity="0.15"/>
</svg>
