<svg width="25" height="24" viewBox="0 0 25 24" fill="none" xmlns="http://www.w3.org/2000/svg">
<g clip-path="url(#clip0_11_720)">
<path fill-rule="evenodd" clip-rule="evenodd" d="M12.0019 2C6.47892 2 2.00192 6.477 2.00192 12C2.00192 13.89 2.52692 15.66 3.43992 17.168L2.54792 20.2C2.49671 20.3741 2.49334 20.5587 2.53817 20.7346C2.583 20.9104 2.67437 21.0709 2.80268 21.1992C2.93099 21.3276 3.0915 21.4189 3.26734 21.4638C3.44317 21.5086 3.62784 21.5052 3.80192 21.454L6.83392 20.562C8.3926 21.5051 10.1801 22.0025 12.0019 22C17.5249 22 22.0019 17.523 22.0019 12C22.0019 6.477 17.5249 2 12.0019 2ZM9.73992 14.263C11.7629 16.285 13.6939 16.552 14.3759 16.577C15.4129 16.615 16.4229 15.823 16.8159 14.904C16.8655 14.7897 16.8835 14.6641 16.8681 14.5405C16.8526 14.4168 16.8042 14.2996 16.7279 14.201C16.1799 13.501 15.4389 12.998 14.7149 12.498C14.5638 12.3935 14.378 12.3516 14.1966 12.381C14.0152 12.4105 13.8522 12.509 13.7419 12.656L13.1419 13.571C13.1104 13.6202 13.0612 13.6555 13.0045 13.6696C12.9478 13.6837 12.8879 13.6756 12.8369 13.647C12.4299 13.414 11.8369 13.018 11.4109 12.592C10.9849 12.166 10.6129 11.6 10.4039 11.219C10.378 11.1706 10.3705 11.1144 10.3828 11.0609C10.3952 11.0074 10.4265 10.9602 10.4709 10.928L11.3949 10.242C11.5268 10.1273 11.6119 9.9682 11.634 9.79486C11.6561 9.62153 11.6138 9.44611 11.5149 9.302C11.0669 8.646 10.5449 7.812 9.78792 7.259C9.69023 7.1882 9.57579 7.14406 9.45586 7.13091C9.33592 7.11776 9.21464 7.13606 9.10392 7.184C8.18392 7.578 7.38792 8.588 7.42592 9.627C7.45092 10.309 7.71792 12.24 9.73992 14.263Z" fill="white"/>
</g>
<defs>
<clipPath id="clip0_11_720">
<rect width="24.0165" height="24" fill="white" transform="translate(0.281219)"/>
</clipPath>
</defs>
</svg>
