<svg width="57" height="56" viewBox="0 0 57 56" fill="none" xmlns="http://www.w3.org/2000/svg">
<g clip-path="url(#clip0_11_709)">
<path d="M21.2627 19.2781L13.9313 36.7687H9.14801L5.54068 22.8084C5.32134 21.9497 5.13234 21.6347 4.46501 21.2731C3.37768 20.6827 1.58101 20.1297 0.00134277 19.7844L0.108676 19.2781H7.80868C8.31185 19.2776 8.79864 19.4569 9.18116 19.7838C9.56369 20.1107 9.81675 20.5636 9.89468 21.0607L11.801 31.1827L16.5097 19.2781H21.2627ZM40.0063 31.0591C40.025 26.4414 33.6223 26.1871 33.6667 24.1244C33.6807 23.4967 34.278 22.8294 35.5847 22.6591C37.116 22.5136 38.6582 22.7845 40.0483 23.4431L40.8417 19.7331C39.4883 19.2243 38.0549 18.9611 36.609 18.9561C32.136 18.9561 28.9883 21.3361 28.9603 24.7404C28.9323 27.2581 31.2073 28.6604 32.9223 29.5004C34.6863 30.3567 35.279 30.9074 35.2697 31.6727C35.258 32.8487 33.865 33.3644 32.563 33.3854C30.288 33.4204 28.9697 32.7717 27.915 32.2817L27.096 36.1131C28.153 36.5984 30.1037 37.0231 32.1267 37.0417C36.8797 37.0417 39.99 34.6944 40.0063 31.0591ZM51.8153 36.7687H56.0013L52.3497 19.2781H48.4857C48.0728 19.2742 47.6683 19.3945 47.3247 19.6234C46.981 19.8522 46.714 20.179 46.5583 20.5614L39.7707 36.7687H44.5213L45.4663 34.1554H51.2717L51.8153 36.7687ZM46.7683 30.5714L49.1483 24.0031L50.5203 30.5714H46.7683ZM27.7283 19.2781L23.988 36.7687H19.4613L23.2063 19.2781H27.7283Z" fill="white"/>
</g>
<defs>
<clipPath id="clip0_11_709">
<rect width="56.0384" height="56" fill="white" transform="translate(0.114624)"/>
</clipPath>
</defs>
</svg>
