<svg width="57" height="58" viewBox="0 0 57 58" fill="none" xmlns="http://www.w3.org/2000/svg">
<g clip-path="url(#clip0_11_739)">
<path d="M43.8189 38.1397C43.1553 33.1419 39.1173 26.7917 34.8431 25.0008C35.6943 24.5184 36.4127 23.7826 36.8686 22.8364C37.4677 21.5931 37.5017 20.2214 37.0735 19.0131C38.417 17.8395 40.1823 17.1966 41.9703 17.2407C42.146 17.245 42.3162 17.1794 42.4435 17.0582C42.5708 16.937 42.6448 16.7702 42.6491 16.5945C42.6513 16.5075 42.6363 16.421 42.605 16.3397C42.5737 16.2585 42.5267 16.1843 42.4667 16.1213C42.4067 16.0582 42.3348 16.0076 42.2552 15.9724C42.1757 15.9371 42.0899 15.9178 42.0029 15.9157C39.9932 15.8662 38.0078 16.5492 36.4501 17.8065C35.9783 17.1352 35.335 16.5712 34.5447 16.1904C33.7545 15.8096 32.9125 15.658 32.0934 15.7072C32.1062 13.7051 31.4039 11.7281 30.1119 10.1861C29.9985 10.0533 29.8372 9.97054 29.6631 9.95599C29.489 9.94144 29.3162 9.99622 29.1823 10.1084C29.0484 10.2206 28.9642 10.3812 28.948 10.5551C28.9319 10.7291 28.985 10.9024 29.096 11.0373C30.2454 12.4092 30.8419 14.1889 30.7612 15.9716C29.5494 16.3897 28.4978 17.271 27.8987 18.5143C27.4428 19.4605 27.315 20.4808 27.4682 21.4472C23.4037 19.2199 15.9212 20.0195 11.599 22.6149C8.73808 24.3328 7.56605 26.6128 8.29882 29.0347C8.69603 30.3474 9.53582 31.3151 10.7525 31.9013C11.7806 32.3967 13.0779 32.6196 14.6046 32.5481C15.9361 32.4857 17.3818 32.1962 18.828 31.7284C17.5941 33.5288 17.0067 35.9615 17.2164 38.4061C17.4424 41.0396 18.5633 43.4313 20.3724 45.1406C20.4722 45.2346 20.5986 45.2956 20.7344 45.315C23.1986 45.6648 25.7675 45.051 27.968 43.5866C30.0107 42.2272 31.5472 40.252 32.1864 38.165C32.7218 39.5876 33.3963 40.8987 34.1772 41.9789C35.0727 43.2175 36.0554 44.0931 37.0835 44.5885C38.3002 45.1747 39.5804 45.2285 40.8545 44.7212C43.2053 43.7851 44.2581 41.4477 43.8189 38.1397ZM27.4417 30.9317C30.5226 32.4162 31.7917 34.906 30.9236 37.7627C30.9117 37.802 30.8989 37.8412 30.8862 37.8805C29.461 36.4792 27.7218 35.2654 25.7998 34.3393C23.8778 33.4132 21.8449 32.8094 19.8607 32.568C19.8835 32.5336 19.9061 32.4992 19.9294 32.4654C21.6228 30.0063 24.3608 29.4472 27.4417 30.9317ZM28.0171 29.7377C26.8597 29.18 25.7267 28.8716 24.6526 28.804C26.5565 27.436 28.0676 25.8004 28.7547 24.0817C29.1623 24.5169 29.6541 24.8863 30.2226 25.1602C30.7912 25.4342 31.3866 25.5886 31.9809 25.6362C31.0648 27.2447 30.7273 29.4457 30.8438 31.7871C30.1217 30.9892 29.1744 30.2953 28.0171 29.7377ZM33.9693 17.3844C35.7838 18.2588 36.5489 20.4463 35.6745 22.261C34.8002 24.0756 32.6126 24.8406 30.798 23.9662C28.9833 23.0919 28.2183 20.9043 29.0927 19.0897C29.9671 17.275 32.1547 16.5101 33.9693 17.3844ZM14.5424 31.2241C12.6548 31.3128 10.2594 30.9382 9.56737 28.6509C8.87533 26.3637 10.6612 24.724 12.2813 23.7513C14.4806 22.4305 17.6513 21.5816 20.763 21.4801C23.0732 21.4048 25.0732 21.7481 26.5151 22.4429C26.9543 22.6545 27.3418 22.8987 27.6703 23.1737C27.152 24.9339 25.4233 26.8232 22.8605 28.4123C20.2146 30.0528 17.1051 31.1039 14.5424 31.2241ZM21.1306 44.0298C19.5032 42.413 18.6854 40.2792 18.5316 38.1733C20.1036 38.4509 21.7118 38.9731 23.2175 39.6986C24.722 40.4235 26.1345 41.3571 27.3304 42.4131C25.5876 43.605 23.4092 44.2952 21.1306 44.0298ZM28.3884 41.581C27.0644 40.3789 25.4813 39.3181 23.7929 38.5045C22.1033 37.6904 20.2896 37.114 18.523 36.8273C18.5868 35.7655 18.8174 34.7418 19.1949 33.83C21.1927 34.0056 23.2673 34.5904 25.2245 35.5335C27.1818 36.4766 28.932 37.7347 30.3143 39.1876C29.8363 40.0512 29.1793 40.8694 28.3884 41.581ZM40.3642 43.4898C38.1443 44.3738 36.3585 42.7339 35.2513 41.2025C33.7484 39.1234 32.6328 36.0363 32.2671 32.9447C31.9128 29.9501 32.3133 27.4208 33.3669 25.9185C35.1651 26.2851 37.1945 27.847 38.9957 30.2653C40.8555 32.7621 42.1673 35.771 42.5049 38.3141C42.7537 40.1872 42.5841 42.6058 40.3642 43.4898Z" fill="white" fill-opacity="0.25"/>
</g>
<defs>
<clipPath id="clip0_11_739">
<rect width="42.4382" height="42.4201" fill="white" transform="matrix(0.900993 0.433833 -0.434316 0.90076 18.4366 0.815918)"/>
</clipPath>
</defs>
</svg>
