<svg width="94" height="94" viewBox="0 0 94 94" fill="none" xmlns="http://www.w3.org/2000/svg">
<g clip-path="url(#clip0_11_735)">
<path d="M72.2762 61.5637C71.1817 53.32 64.5212 42.8457 57.4711 39.8916C58.8752 39.0959 60.0601 37.8822 60.8121 36.3216C61.8003 34.2708 61.8563 32.0082 61.15 30.0152C63.366 28.0794 66.2779 27.0189 69.2271 27.0917C69.5169 27.0988 69.7977 26.9905 70.0077 26.7907C70.2177 26.5908 70.3397 26.3157 70.3468 26.0258C70.3504 25.8823 70.3256 25.7395 70.274 25.6056C70.2223 25.4716 70.1448 25.3492 70.0458 25.2452C69.9468 25.1412 69.8284 25.0578 69.6971 24.9996C69.5659 24.9414 69.4245 24.9097 69.2809 24.9062C65.966 24.8245 62.6911 25.9511 60.1218 28.025C59.3435 26.9177 58.2824 25.9873 56.9789 25.3592C55.6754 24.7312 54.2866 24.4811 52.9356 24.5623C52.9567 21.2598 51.7983 17.9989 49.6672 15.4554C49.4801 15.2363 49.2141 15.0998 48.9269 15.0758C48.6397 15.0518 48.3547 15.1422 48.1338 15.3273C47.9129 15.5123 47.774 15.7771 47.7474 16.0641C47.7207 16.351 47.8085 16.6369 47.9915 16.8595C49.8874 19.1223 50.8713 22.0578 50.7382 24.9984C48.7393 25.6879 47.0048 27.1416 46.0166 29.1924C45.2646 30.7531 45.0538 32.4361 45.3065 34.0301C38.6023 30.3562 26.2603 31.6752 19.1309 35.9562C14.4119 38.7899 12.4787 42.5505 13.6874 46.5453C14.3426 48.7106 15.7278 50.3067 17.7346 51.2737C19.4304 52.0908 21.5703 52.4586 24.0886 52.3406C26.2847 52.2376 28.6694 51.7601 31.0548 50.9885C29.0196 53.9583 28.0508 57.9708 28.3967 62.0031C28.7694 66.347 30.6182 70.292 33.6023 73.1113C33.7669 73.2665 33.9754 73.367 34.1993 73.399C38.264 73.976 42.5013 72.9635 46.1308 70.5481C49.5002 68.3059 52.0347 65.0478 53.089 61.6055C53.9721 63.952 55.0847 66.1145 56.3727 67.8962C57.8497 69.9393 59.4707 71.3836 61.1665 72.2007C63.1734 73.1677 65.2851 73.2563 67.3866 72.4195C71.2643 70.8755 73.0008 67.02 72.2762 61.5637ZM45.2628 49.6744C50.3446 52.123 52.438 56.2299 51.0061 60.9419C50.9863 61.0067 50.9654 61.0714 50.9443 61.1362C48.5935 58.8248 45.7249 56.8227 42.5546 55.2951C39.3843 53.7676 36.031 52.7716 32.7583 52.3733C32.7958 52.3166 32.8331 52.2599 32.8715 52.2042C35.6647 48.148 40.181 47.2258 45.2628 49.6744ZM46.2119 47.7049C44.3028 46.785 42.434 46.2764 40.6623 46.1648C43.8026 43.9085 46.2952 41.2106 47.4285 38.3756C48.1008 39.0935 48.9121 39.7028 49.8498 40.1546C50.7876 40.6065 51.7697 40.8613 52.7499 40.9397C51.2389 43.5928 50.6822 47.2233 50.8744 51.0854C49.6833 49.7693 48.1209 48.6247 46.2119 47.7049ZM56.0298 27.3288C59.0228 28.7709 60.2847 32.3792 58.8424 35.3725C57.4003 38.3655 53.7919 39.6274 50.7988 38.1852C47.8056 36.743 46.5438 33.1346 47.986 30.1415C49.4284 27.1483 53.0367 25.8866 56.0298 27.3288ZM23.986 50.1567C20.8724 50.3029 16.9213 49.6851 15.7798 45.9122C14.6383 42.1397 17.584 39.4351 20.2563 37.8306C23.884 35.6521 29.1139 34.2518 34.2465 34.0844C38.0572 33.9602 41.3561 34.5264 43.7344 35.6724C44.4589 36.0215 45.0979 36.4244 45.6399 36.878C44.7849 39.7812 41.9335 42.8976 37.7063 45.5188C33.342 48.2247 28.213 49.9585 23.986 50.1567ZM34.8529 71.2792C32.1685 68.6123 30.8196 65.0926 30.5659 61.6191C33.1589 62.077 35.8116 62.9384 38.2952 64.1351C40.7767 65.3308 43.1066 66.8706 45.0792 68.6124C42.2046 70.5785 38.6114 71.7169 34.8529 71.2792ZM46.8244 67.24C44.6404 65.2572 42.0292 63.5074 39.2442 62.1655C36.4573 60.8226 33.4658 59.8719 30.5518 59.399C30.657 57.6475 31.0373 55.959 31.66 54.455C34.9553 54.7447 38.3773 55.7093 41.6057 57.2649C44.834 58.8204 47.721 60.8957 50.001 63.2922C49.2126 64.7166 48.1288 66.0662 46.8244 67.24ZM66.5779 70.3885C62.9162 71.8466 59.9706 69.1417 58.1445 66.6157C55.6655 63.1862 53.8253 58.0943 53.222 52.9948C52.6377 48.0552 53.2983 43.8833 55.0362 41.4053C58.0022 42.01 61.3496 44.5862 64.3207 48.5753C67.3882 52.6936 69.5521 57.6566 70.1089 61.8514C70.5192 64.941 70.2395 68.9303 66.5779 70.3885Z" fill="white" fill-opacity="0.25"/>
</g>
<defs>
<clipPath id="clip0_11_735">
<rect width="70.0001" height="69.9702" fill="white" transform="matrix(0.900993 0.433833 -0.434316 0.90076 30.4023 0)"/>
</clipPath>
</defs>
</svg>
