<svg width="178" height="178" viewBox="0 0 178 178" fill="none" xmlns="http://www.w3.org/2000/svg">
<g clip-path="url(#clip0_11_731)">
<path d="M137.256 116.912C135.177 101.257 122.529 81.3659 109.14 75.756C111.806 74.245 114.057 71.9402 115.485 68.9764C117.361 65.0818 117.468 60.7851 116.126 57.0003C120.335 53.3243 125.865 51.3103 131.465 51.4485C132.016 51.462 132.549 51.2564 132.948 50.8768C133.346 50.4972 133.578 49.9748 133.592 49.4244C133.598 49.1519 133.551 48.8807 133.453 48.6263C133.355 48.3719 133.208 48.1394 133.02 47.9419C132.832 47.7445 132.607 47.586 132.358 47.4755C132.109 47.365 131.84 47.3048 131.567 47.2981C125.272 47.1429 119.053 49.2824 114.174 53.2209C112.696 51.118 110.681 49.3512 108.205 48.1585C105.73 46.9658 103.093 46.4908 100.527 46.645C100.567 40.3735 98.3672 34.1809 94.3202 29.3508C93.9649 28.9345 93.4596 28.6755 92.9143 28.6299C92.3689 28.5843 91.8276 28.7559 91.4081 29.1074C90.9887 29.4588 90.7249 29.9617 90.6743 30.5066C90.6237 31.0515 90.7903 31.5943 91.1379 32.0171C94.7383 36.3143 96.6067 41.8889 96.354 47.4733C92.558 48.7827 89.264 51.5433 87.3875 55.4379C85.9595 58.4016 85.5592 61.5978 86.0389 64.6247C73.3074 57.648 49.8694 60.1528 36.3304 68.2825C27.3689 73.6638 23.6977 80.8054 25.993 88.3918C27.2372 92.5037 29.8677 95.5349 33.6789 97.3712C36.8993 98.9229 40.9629 99.6213 45.7453 99.3972C49.9158 99.2017 54.4444 98.2948 58.9745 96.8295C55.1095 102.469 53.2696 110.089 53.9265 117.747C54.6344 125.996 58.1453 133.488 63.8122 138.842C64.1247 139.136 64.5207 139.327 64.946 139.388C72.6649 140.484 80.7118 138.561 87.6044 133.974C94.0029 129.716 98.8161 123.529 100.818 116.992C102.495 121.448 104.608 125.554 107.054 128.938C109.859 132.818 112.937 135.561 116.158 137.112C119.969 138.949 123.979 139.117 127.97 137.528C135.334 134.596 138.632 127.274 137.256 116.912ZM85.9561 94.3341C95.6065 98.984 99.582 106.783 96.8627 115.731C96.8252 115.855 96.7854 115.977 96.7454 116.1C92.2812 111.711 86.8335 107.909 80.813 105.008C74.7925 102.107 68.4245 100.216 62.2094 99.4594C62.2806 99.3517 62.3516 99.2439 62.4244 99.1382C67.7288 91.4354 76.3054 89.684 85.9561 94.3341ZM87.7583 90.5938C84.133 88.847 80.584 87.881 77.2195 87.6692C83.183 83.3843 87.9165 78.2609 90.0688 72.8772C91.3455 74.2404 92.8861 75.3975 94.667 76.2556C96.4478 77.1136 98.3128 77.5975 100.174 77.7464C97.3048 82.7848 96.2477 89.6793 96.6127 97.0136C94.3507 94.5143 91.3836 92.3406 87.7583 90.5938ZM106.403 51.8987C112.087 54.6374 114.483 61.4898 111.744 67.1741C109.006 72.858 102.153 75.2543 96.4691 72.5155C90.785 69.7767 88.3886 62.9243 91.1274 57.2402C93.8666 51.556 100.719 49.1599 106.403 51.8987ZM45.5504 95.2499C39.6376 95.5276 32.1343 94.3543 29.9666 87.1895C27.7988 80.0253 33.3929 74.8891 38.4676 71.8421C45.3568 67.7051 55.2886 65.0458 65.0355 64.728C72.2723 64.492 78.5369 65.5674 83.0536 67.7437C84.4293 68.4066 85.6429 69.1716 86.6721 70.033C85.0484 75.5464 79.6336 81.4646 71.6059 86.4423C63.3178 91.5809 53.5777 94.8735 45.5504 95.2499ZM66.1872 135.362C61.0894 130.298 58.5278 123.614 58.046 117.017C62.9702 117.887 68.0077 119.523 72.7242 121.795C77.4368 124.066 81.8612 126.99 85.6074 130.298C80.1483 134.032 73.3247 136.194 66.1872 135.362ZM88.9216 127.692C84.774 123.926 79.8152 120.603 74.5264 118.055C69.2339 115.505 63.5529 113.699 58.0191 112.801C58.2191 109.475 58.9411 106.269 60.1238 103.413C66.3816 103.963 72.8801 105.795 79.0109 108.749C85.1417 111.703 90.6242 115.644 94.9541 120.195C93.4568 122.9 91.3987 125.463 88.9216 127.692ZM126.434 133.671C119.481 136.44 113.887 131.303 110.419 126.506C105.711 119.994 102.217 110.324 101.071 100.64C99.9612 91.2592 101.216 83.3364 104.516 78.6306C110.149 79.7791 116.505 84.6714 122.148 92.2467C127.973 100.068 132.082 109.493 133.14 117.459C133.919 123.326 133.388 130.902 126.434 133.671Z" fill="white" fill-opacity="0.25"/>
</g>
<defs>
<clipPath id="clip0_11_731">
<rect width="132.933" height="132.876" fill="white" transform="matrix(0.900993 0.433833 -0.434316 0.90076 57.71 0)"/>
</clipPath>
</defs>
</svg>
