<svg width="25" height="24" viewBox="0 0 25 24" fill="none" xmlns="http://www.w3.org/2000/svg">
<path d="M17.2518 3.5H7.24498C4.24292 3.5 2.24155 5 2.24155 8.5V15.5C2.24155 19 4.24292 20.5 7.24498 20.5H17.2518C20.2539 20.5 22.2553 19 22.2553 15.5V8.5C22.2553 5 20.2539 3.5 17.2518 3.5ZM17.7222 9.59L14.59 12.09C13.9296 12.62 13.089 12.88 12.2484 12.88C11.4078 12.88 10.5572 12.62 9.9068 12.09L6.77465 9.59C6.45443 9.33 6.4044 8.85 6.65457 8.53C6.91475 8.21 7.38507 8.15 7.70529 8.41L10.8374 10.91C11.598 11.52 12.8888 11.52 13.6494 10.91L16.7815 8.41C17.1017 8.15 17.5821 8.2 17.8322 8.53C18.0924 8.85 18.0424 9.33 17.7222 9.59Z" fill="white"/>
</svg>
