<svg width="25" height="24" viewBox="0 0 25 24" fill="none" xmlns="http://www.w3.org/2000/svg">
<path d="M17.9133 10.75C17.483 10.75 17.1428 10.4 17.1428 9.97998C17.1428 9.60998 16.7725 8.83998 16.1521 8.16998C15.5417 7.51998 14.8712 7.13998 14.3108 7.13998C13.8805 7.13998 13.5403 6.78998 13.5403 6.36998C13.5403 5.94998 13.8906 5.59998 14.3108 5.59998C15.3115 5.59998 16.3622 6.13998 17.2829 7.10998C18.1435 8.01998 18.6938 9.14998 18.6938 9.96998C18.6938 10.4 18.3436 10.75 17.9133 10.75Z" fill="white"/>
<path d="M21.5258 10.75C21.0955 10.75 20.7553 10.4 20.7553 9.98C20.7553 6.43 17.8633 3.55 14.3209 3.55C13.8906 3.55 13.5503 3.2 13.5503 2.78C13.5503 2.36 13.8906 2 14.3108 2C18.7139 2 22.2963 5.58 22.2963 9.98C22.2963 10.4 21.9461 10.75 21.5258 10.75Z" fill="white"/>
<path d="M11.3388 14.95L9.48753 16.8C9.09726 17.19 8.47684 17.19 8.07656 16.81C7.96649 16.7 7.85641 16.6 7.74634 16.49C6.71563 15.45 5.78499 14.36 4.95442 13.22C4.13386 12.08 3.47341 10.94 2.99308 9.81C2.52276 8.67 2.28259 7.58 2.28259 6.54C2.28259 5.86 2.40267 5.21 2.64284 4.61C2.883 4 3.26326 3.44 3.79363 2.94C4.43407 2.31 5.13455 2 5.87505 2C6.15525 2 6.43544 2.06 6.68561 2.18C6.94579 2.3 7.17595 2.48 7.35607 2.74L9.67766 6.01C9.85778 6.26 9.98787 6.49 10.0779 6.71C10.168 6.92 10.218 7.13 10.218 7.32C10.218 7.56 10.148 7.8 10.0079 8.03C9.8778 8.26 9.68767 8.5 9.4475 8.74L8.68698 9.53C8.57691 9.64 8.52687 9.77 8.52687 9.93C8.52687 10.01 8.53688 10.08 8.55689 10.16C8.58691 10.24 8.61693 10.3 8.63695 10.36C8.81707 10.69 9.12728 11.12 9.56759 11.64C10.0179 12.16 10.4982 12.69 11.0186 13.22C11.1186 13.32 11.2287 13.42 11.3288 13.52C11.7291 13.91 11.7391 14.55 11.3388 14.95Z" fill="white"/>
<path d="M22.2663 18.33C22.2663 18.61 22.2163 18.9 22.1162 19.18C22.0862 19.26 22.0562 19.34 22.0161 19.42C21.846 19.78 21.6259 20.12 21.3357 20.44C20.8453 20.98 20.305 21.37 19.6945 21.62C19.6845 21.62 19.6745 21.63 19.6645 21.63C19.0741 21.87 18.4337 22 17.7432 22C16.7225 22 15.6318 21.76 14.481 21.27C13.3302 20.78 12.1794 20.12 11.0386 19.29C10.6483 19 10.2581 18.71 9.88782 18.4L13.1601 15.13C13.4403 15.34 13.6904 15.5 13.9006 15.61C13.9506 15.63 14.0106 15.66 14.0807 15.69C14.1607 15.72 14.2408 15.73 14.3309 15.73C14.501 15.73 14.6311 15.67 14.7411 15.56L15.5017 14.81C15.7518 14.56 15.992 14.37 16.2222 14.25C16.4523 14.11 16.6825 14.04 16.9326 14.04C17.1228 14.04 17.3229 14.08 17.5431 14.17C17.7632 14.26 17.9934 14.39 18.2435 14.56L21.5558 16.91C21.816 17.09 21.9961 17.3 22.1062 17.55C22.2063 17.8 22.2663 18.05 22.2663 18.33Z" fill="white"/>
</svg>
